<?xml version="1.0" encoding="utf-8"?>
<!-- Generator: Adobe Illustrator 16.0.0, SVG Export Plug-In . SVG Version: 6.00 Build 0)  -->
<!DOCTYPE svg PUBLIC "-//W3C//DTD SVG 1.1//EN" "http://www.w3.org/Graphics/SVG/1.1/DTD/svg11.dtd">
<svg version="1.1" id="Layer_1" xmlns="http://www.w3.org/2000/svg" xmlns:xlink="http://www.w3.org/1999/xlink" x="0px" y="0px"
	 width="24px" height="24px" viewBox="0 0 24 24" enable-background="new 0 0 24 24" xml:space="preserve">
<path fill="#FF8800" d="M12,17.27c0.033-0.002,0.063-0.01,0.095-0.014c0.239-0.013,0.481-0.093,0.7-0.311
	c2.765-2.765,5.531-5.53,8.295-8.296c1.025-1.025-0.563-2.613-1.588-1.588c-2.501,2.501-5.001,5.001-7.502,7.503
	C9.5,12.063,6.998,9.563,4.496,7.062C3.472,6.037,1.884,7.625,2.908,8.65c2.766,2.766,5.532,5.531,8.298,8.295
	c0.218,0.218,0.46,0.298,0.699,0.311C11.938,17.26,11.968,17.268,12,17.27z"/>
</svg>
