<?xml version="1.0" encoding="utf-8"?>
<!-- Generator: Adobe Illustrator 16.0.0, SVG Export Plug-In . SVG Version: 6.00 Build 0)  -->
<!DOCTYPE svg PUBLIC "-//W3C//DTD SVG 1.1//EN" "http://www.w3.org/Graphics/SVG/1.1/DTD/svg11.dtd">
<svg version="1.1" id="Layer_1" xmlns="http://www.w3.org/2000/svg" xmlns:xlink="http://www.w3.org/1999/xlink" x="0px" y="0px"
	 width="34px" height="34px" viewBox="0 0 34 34" enable-background="new 0 0 34 34" xml:space="preserve">
<path fill="#FF8800" d="M20.562,17c3.426-3.427,6.854-6.854,10.279-10.281c2.3-2.297-1.262-5.859-3.562-3.561
	C23.854,6.585,20.426,10.012,17,13.439c-3.427-3.427-6.854-6.854-10.281-10.281C4.422,0.86,0.86,4.422,3.159,6.719
	C6.585,10.146,10.012,13.573,13.439,17c-3.427,3.426-6.853,6.854-10.279,10.279c-2.298,2.3,1.262,5.861,3.561,3.562
	c3.427-3.426,6.853-6.854,10.279-10.279c3.426,3.426,6.854,6.854,10.279,10.279c2.3,2.3,5.861-1.262,3.562-3.562
	C27.415,23.854,23.987,20.426,20.562,17z"/>
</svg>
