<?xml version="1.0" encoding="utf-8"?>
<!-- Generator: Adobe Illustrator 16.0.0, SVG Export Plug-In . SVG Version: 6.00 Build 0)  -->
<!DOCTYPE svg PUBLIC "-//W3C//DTD SVG 1.1//EN" "http://www.w3.org/Graphics/SVG/1.1/DTD/svg11.dtd">
<svg version="1.1" id="Layer_1" xmlns="http://www.w3.org/2000/svg" xmlns:xlink="http://www.w3.org/1999/xlink" x="0px" y="0px"
	 width="38px" height="38px" viewBox="0 0 38 38" enable-background="new 0 0 38 38" xml:space="preserve">
<g>
	<path fill="#FF8800" d="M16.657,33.91L16.657,33.91c-3.491-0.55-6.692-2.337-9.016-5.027C5.292,26.162,4,22.684,4,19.09
		c0-8.271,6.729-15,15-15c8.271,0,15,6.729,15,15c0,3.594-1.293,7.072-3.641,9.793c-2.323,2.69-5.524,4.478-9.014,5.025
		l-0.002-10.481h3.494l0.666-4.337h-4.16v-2.813c0-0.661,0.181-1.221,0.524-1.616c0.416-0.481,1.063-0.726,1.921-0.726h1.893v-3.691
		c-0.015-0.003-1.733-0.294-3.359-0.294c-1.709,0-3.132,0.521-4.118,1.508c-1.012,1.014-1.547,2.512-1.547,4.328v3.305h-3.808v4.337
		h3.808v10.481V33.91z"/>
</g>
</svg>
