<?xml version="1.0" encoding="utf-8"?>
<!-- Generator: Adobe Illustrator 16.0.0, SVG Export Plug-In . SVG Version: 6.00 Build 0)  -->
<!DOCTYPE svg PUBLIC "-//W3C//DTD SVG 1.1//EN" "http://www.w3.org/Graphics/SVG/1.1/DTD/svg11.dtd">
<svg version="1.1" id="Layer_1" xmlns="http://www.w3.org/2000/svg" xmlns:xlink="http://www.w3.org/1999/xlink" x="0px" y="0px"
	 width="300px" height="300px" viewBox="0 0 300 300" enable-background="new 0 0 300 300" xml:space="preserve">
<g>
	<defs>
		<circle id="SVGID_1_" cx="150" cy="150" r="150"/>
	</defs>
	<clipPath id="SVGID_2_">
		<use xlink:href="#SVGID_1_"  overflow="visible"/>
	</clipPath>
	<rect clip-path="url(#SVGID_2_)" fill="#13007C" width="300" height="300"/>
	<path clip-path="url(#SVGID_2_)" fill="#FF8000" d="M63.366,170.798H51.615l-2.231,5.26h-4.093l10.285-23.3h4.028l10.186,23.3
		h-4.195L63.366,170.798z M61.868,167.304l-4.394-10.353l-4.393,10.353H61.868z"/>
	<polygon clip-path="url(#SVGID_2_)" fill="#FF8000" points="85.337,158.383 85.337,160.945 75.218,172.93 85.637,172.962 
		85.637,176.092 70.492,176.058 70.492,173.462 80.611,161.478 70.79,161.478 70.79,158.35 	"/>
	<g clip-path="url(#SVGID_2_)">
		<defs>
			<rect id="SVGID_3_" x="-42.9" y="-42.899" width="385.799" height="385.799"/>
		</defs>
		<clipPath id="SVGID_4_">
			<use xlink:href="#SVGID_3_"  overflow="visible"/>
		</clipPath>
		<path clip-path="url(#SVGID_4_)" fill="#FF8000" d="M99.152,176.058v-2.164c-1.266,1.566-3.295,2.332-5.857,2.332
			c-3.828,0-6.226-2.364-6.226-5.494c0-3.229,2.431-5.292,6.691-5.326h5.358v-0.531c0-2.231-1.431-3.562-4.227-3.562
			c-1.697,0-3.461,0.6-5.227,1.796l-1.563-2.662c2.462-1.465,4.26-2.23,7.622-2.23c4.561,0,7.124,2.33,7.157,6.226l0.034,11.616
			H99.152z M99.119,169.834v-1.633h-4.792c-2.496,0-3.662,0.667-3.662,2.364c0,1.598,1.298,2.629,3.428,2.629
			C96.822,173.194,98.92,171.764,99.119,169.834"/>
		<path clip-path="url(#SVGID_4_)" fill="#FF8000" d="M124.087,151.359v24.696h-3.829v-3.026c-1.266,2.063-3.396,3.196-6.224,3.196
			c-5.094,0-8.489-3.695-8.489-9.089c0-5.325,3.429-8.954,8.42-8.954c2.863,0,4.994,1.164,6.292,3.228v-10.051H124.087z
			 M120.259,167.271c0-3.429-2.229-5.826-5.427-5.826c-3.196,0-5.424,2.431-5.458,5.826c0.034,3.36,2.23,5.759,5.458,5.759
			C118.029,173.029,120.259,170.631,120.259,167.271"/>
		<path clip-path="url(#SVGID_4_)" fill="#FF8000" d="M133.208,153.289c0,1.298-0.965,2.264-2.231,2.264
			c-1.264,0-2.229-0.966-2.229-2.264c0-1.332,0.965-2.297,2.229-2.297C132.243,150.992,133.208,151.957,133.208,153.289
			 M132.876,176.058h-3.795V158.35h3.795V176.058z"/>
		<polygon clip-path="url(#SVGID_4_)" fill-rule="evenodd" clip-rule="evenodd" fill="#FFFFFF" points="85.497,115.478 
			93.575,124.037 95.282,126.417 96.998,128.8 94.894,126.766 92.794,124.736 		"/>
		<polygon clip-path="url(#SVGID_4_)" fill-rule="evenodd" clip-rule="evenodd" fill="#FFFFFF" points="89.137,113.034 
			94.857,123.343 95.924,126.069 96.998,128.8 95.46,126.303 93.92,123.805 		"/>
		<polygon clip-path="url(#SVGID_4_)" fill-rule="evenodd" clip-rule="evenodd" fill="#FFFFFF" points="93.302,111.662 
			96.287,123.02 96.645,125.908 96.999,128.8 96.124,126.004 95.251,123.208 		"/>
		<polygon clip-path="url(#SVGID_4_)" fill-rule="evenodd" clip-rule="evenodd" fill="#FFFFFF" points="97.719,111.45 
			97.769,123.09 97.383,125.941 96.999,128.8 96.854,125.901 96.709,122.997 		"/>
		<polygon clip-path="url(#SVGID_4_)" fill-rule="evenodd" clip-rule="evenodd" fill="#FFFFFF" points="102.091,112.427 
			99.191,123.554 98.099,126.176 96.999,128.799 97.593,125.995 98.184,123.187 		"/>
		<polygon clip-path="url(#SVGID_4_)" fill-rule="evenodd" clip-rule="evenodd" fill="#FFFFFF" points="106.123,114.523 
			100.471,124.371 98.736,126.586 96.999,128.8 98.286,126.28 99.579,123.757 		"/>
		<polygon clip-path="url(#SVGID_4_)" fill-rule="evenodd" clip-rule="evenodd" fill="#FFFFFF" points="109.524,117.584 
			101.506,125.495 99.256,127.148 96.999,128.8 98.896,126.731 100.79,124.666 		"/>
		<polygon clip-path="url(#SVGID_4_)" fill-rule="evenodd" clip-rule="evenodd" fill="#FFFFFF" points="112.078,121.42 
			102.244,126.843 99.617,127.822 96.999,128.8 99.379,127.332 101.757,125.86 		"/>
		<polygon clip-path="url(#SVGID_4_)" fill-rule="evenodd" clip-rule="evenodd" fill="#FFFFFF" points="113.596,125.752 
			102.621,128.324 99.813,128.566 96.999,128.8 99.692,128.024 102.389,127.258 		"/>
		<polygon clip-path="url(#SVGID_4_)" fill-rule="evenodd" clip-rule="evenodd" fill="#FFFFFF" points="113.987,130.292 
			102.612,129.835 99.805,129.322 96.999,128.799 99.829,128.771 102.657,128.752 		"/>
		<polygon clip-path="url(#SVGID_4_)" fill-rule="evenodd" clip-rule="evenodd" fill="#FFFFFF" points="113.224,134.734 
			102.219,131.279 99.613,130.044 96.998,128.8 99.77,129.526 102.541,130.261 		"/>
		<polygon clip-path="url(#SVGID_4_)" fill-rule="evenodd" clip-rule="evenodd" fill="#FFFFFF" points="111.352,138.766 
			101.477,132.557 99.239,130.68 96.999,128.799 99.519,130.233 102.039,131.662 		"/>
		<polygon clip-path="url(#SVGID_4_)" fill-rule="evenodd" clip-rule="evenodd" fill="#FFFFFF" points="108.499,142.12 
			100.424,133.573 98.713,131.189 96.999,128.8 99.102,130.84 101.206,132.875 		"/>
		<polygon clip-path="url(#SVGID_4_)" fill-rule="evenodd" clip-rule="evenodd" fill="#FFFFFF" points="104.867,144.572 
			99.135,134.26 98.066,131.534 96.998,128.799 98.542,131.303 100.079,133.807 		"/>
		<polygon clip-path="url(#SVGID_4_)" fill-rule="evenodd" clip-rule="evenodd" fill="#FFFFFF" points="100.697,145.95 
			97.707,134.587 97.347,131.694 96.999,128.8 97.875,131.599 98.741,134.396 		"/>
		<polygon clip-path="url(#SVGID_4_)" fill-rule="evenodd" clip-rule="evenodd" fill="#FFFFFF" points="96.272,146.153 
			96.223,134.512 96.609,131.655 96.999,128.799 97.142,131.705 97.284,134.605 		"/>
		<polygon clip-path="url(#SVGID_4_)" fill-rule="evenodd" clip-rule="evenodd" fill="#FFFFFF" points="91.901,145.175 
			94.801,134.049 95.898,131.422 96.999,128.8 96.406,131.616 95.812,134.422 		"/>
		<polygon clip-path="url(#SVGID_4_)" fill-rule="evenodd" clip-rule="evenodd" fill="#FFFFFF" points="87.876,143.088 
			93.521,133.233 95.264,131.016 96.999,128.8 95.705,131.323 94.416,133.85 		"/>
		<polygon clip-path="url(#SVGID_4_)" fill-rule="evenodd" clip-rule="evenodd" fill="#FFFFFF" points="84.471,140.015 
			92.482,132.104 94.739,130.451 96.999,128.8 95.1,130.869 93.199,132.933 		"/>
		<polygon clip-path="url(#SVGID_4_)" fill-rule="evenodd" clip-rule="evenodd" fill="#FFFFFF" points="81.922,136.191 
			91.752,130.763 94.375,129.782 96.999,128.799 94.62,130.271 92.236,131.743 		"/>
		<polygon clip-path="url(#SVGID_4_)" fill-rule="evenodd" clip-rule="evenodd" fill="#FFFFFF" points="80.396,131.85 
			91.375,129.282 94.187,129.044 96.999,128.8 94.303,129.574 91.603,130.346 		"/>
		<polygon clip-path="url(#SVGID_4_)" fill-rule="evenodd" clip-rule="evenodd" fill="#FFFFFF" points="80.004,127.31 
			91.38,127.768 94.191,128.286 96.999,128.8 94.165,128.822 91.335,128.851 		"/>
		<polygon clip-path="url(#SVGID_4_)" fill-rule="evenodd" clip-rule="evenodd" fill="#FFFFFF" points="80.775,122.876 
			91.771,126.323 94.387,127.56 96.999,128.799 94.222,128.075 91.455,127.346 		"/>
		<polygon clip-path="url(#SVGID_4_)" fill-rule="evenodd" clip-rule="evenodd" fill="#FFFFFF" points="82.65,118.842 
			92.522,125.054 94.764,126.928 96.999,128.8 94.472,127.37 91.954,125.941 		"/>
		<path clip-path="url(#SVGID_4_)" fill-rule="evenodd" clip-rule="evenodd" fill="#FFFFFF" d="M91.039,112.328
			c0.421-0.203,0.938-0.016,1.15,0.419c0.217,0.432,0.057,0.954-0.364,1.157c-0.414,0.204-0.929,0.017-1.138-0.415
			C90.462,113.049,90.623,112.527,91.039,112.328"/>
		<path clip-path="url(#SVGID_4_)" fill-rule="evenodd" clip-rule="evenodd" fill="#FFFFFF" d="M95.348,111.49
			c0.458-0.079,0.908,0.229,1.015,0.707c0.097,0.472-0.188,0.924-0.646,1.01c-0.456,0.089-0.912-0.233-1.011-0.702
			C94.601,112.03,94.89,111.584,95.348,111.49"/>
		<path clip-path="url(#SVGID_4_)" fill-rule="evenodd" clip-rule="evenodd" fill="#FFFFFF" d="M99.765,111.837
			c0.464,0.036,0.832,0.463,0.809,0.938c-0.016,0.481-0.417,0.84-0.889,0.794c-0.464-0.036-0.833-0.463-0.809-0.936
			C98.897,112.155,99.295,111.795,99.765,111.837"/>
		<path clip-path="url(#SVGID_4_)" fill-rule="evenodd" clip-rule="evenodd" fill="#FFFFFF" d="M103.992,113.337
			c0.448,0.157,0.7,0.664,0.558,1.117c-0.146,0.446-0.621,0.684-1.07,0.519c-0.444-0.162-0.693-0.663-0.56-1.116
			C103.073,113.407,103.546,113.176,103.992,113.337"/>
		<path clip-path="url(#SVGID_4_)" fill-rule="evenodd" clip-rule="evenodd" fill="#FFFFFF" d="M107.746,115.894
			c0.394,0.273,0.509,0.811,0.254,1.207c-0.249,0.396-0.771,0.495-1.168,0.217c-0.401-0.275-0.514-0.816-0.267-1.212
			C106.821,115.709,107.344,115.618,107.746,115.894"/>
		<path clip-path="url(#SVGID_4_)" fill-rule="evenodd" clip-rule="evenodd" fill="#FFFFFF" d="M110.762,119.321
			c0.324,0.375,0.293,0.915-0.054,1.227c-0.345,0.308-0.876,0.27-1.199-0.104c-0.317-0.366-0.294-0.915,0.052-1.225
			C109.909,118.909,110.445,118.956,110.762,119.321"/>
		<path clip-path="url(#SVGID_4_)" fill-rule="evenodd" clip-rule="evenodd" fill="#FFFFFF" d="M112.847,123.404
			c0.216,0.44,0.059,0.958-0.365,1.157c-0.416,0.208-0.928,0.018-1.149-0.42c-0.209-0.432-0.049-0.945,0.364-1.156
			C112.121,122.786,112.625,122.967,112.847,123.404"/>
		<path clip-path="url(#SVGID_4_)" fill-rule="evenodd" clip-rule="evenodd" fill="#FFFFFF" d="M113.843,127.855
			c0.105,0.465-0.185,0.919-0.639,1.01c-0.463,0.083-0.914-0.237-1.016-0.706c-0.107-0.477,0.189-0.923,0.648-1.009
			C113.286,127.063,113.739,127.374,113.843,127.855"/>
		<path clip-path="url(#SVGID_4_)" fill-rule="evenodd" clip-rule="evenodd" fill="#FFFFFF" d="M113.697,132.365
			c-0.017,0.482-0.409,0.833-0.883,0.792c-0.47-0.042-0.833-0.463-0.813-0.942c0.023-0.482,0.415-0.833,0.885-0.792
			C113.354,131.464,113.717,131.885,113.697,132.365"/>
		<path clip-path="url(#SVGID_4_)" fill-rule="evenodd" clip-rule="evenodd" fill="#FFFFFF" d="M112.417,136.636
			c-0.143,0.452-0.619,0.689-1.067,0.516c-0.448-0.157-0.696-0.658-0.552-1.109c0.137-0.449,0.612-0.68,1.06-0.521
			C112.303,135.682,112.558,136.183,112.417,136.636"/>
		<path clip-path="url(#SVGID_4_)" fill-rule="evenodd" clip-rule="evenodd" fill="#FFFFFF" d="M110.079,140.374
			c-0.251,0.39-0.779,0.486-1.169,0.214c-0.399-0.273-0.516-0.819-0.26-1.214c0.243-0.398,0.771-0.495,1.168-0.215
			C110.217,139.434,110.331,139.975,110.079,140.374"/>
		<path clip-path="url(#SVGID_4_)" fill-rule="evenodd" clip-rule="evenodd" fill="#FFFFFF" d="M106.854,143.323
			c-0.341,0.303-0.886,0.256-1.202-0.109c-0.32-0.371-0.293-0.923,0.047-1.228c0.348-0.312,0.887-0.266,1.206,0.105
			C107.221,142.458,107.202,143.011,106.854,143.323"/>
		<path clip-path="url(#SVGID_4_)" fill-rule="evenodd" clip-rule="evenodd" fill="#FFFFFF" d="M102.953,145.275
			c-0.413,0.205-0.929,0.017-1.146-0.415c-0.221-0.438-0.057-0.961,0.36-1.162c0.412-0.203,0.929-0.018,1.146,0.423
			C103.529,144.554,103.369,145.076,102.953,145.275"/>
		<path clip-path="url(#SVGID_4_)" fill-rule="evenodd" clip-rule="evenodd" fill="#FFFFFF" d="M98.648,146.109
			c-0.458,0.085-0.914-0.229-1.012-0.702c-0.103-0.475,0.183-0.925,0.645-1.007c0.454-0.089,0.912,0.226,1.007,0.699
			C99.394,145.576,99.108,146.029,98.648,146.109"/>
		<path clip-path="url(#SVGID_4_)" fill-rule="evenodd" clip-rule="evenodd" fill="#FFFFFF" d="M94.23,145.761
			c-0.464-0.035-0.83-0.458-0.808-0.936c0.015-0.476,0.415-0.833,0.885-0.792c0.468,0.041,0.832,0.462,0.808,0.935
			C95.098,145.453,94.7,145.811,94.23,145.761"/>
		<path clip-path="url(#SVGID_4_)" fill-rule="evenodd" clip-rule="evenodd" fill="#FFFFFF" d="M95.545,127.118
			c0.874-0.781,2.231-0.663,3.033,0.266c0.805,0.933,0.745,2.316-0.13,3.098c-0.871,0.781-2.228,0.666-3.033-0.266
			C94.614,129.287,94.674,127.898,95.545,127.118"/>
		<path clip-path="url(#SVGID_4_)" fill-rule="evenodd" clip-rule="evenodd" fill="#FFFFFF" d="M109.961,117.192
			c-5.307-6.146-13.587-7.964-20.352-5.062v1.496c6.359-3.038,14.336-1.446,19.399,4.419c6.091,7.054,5.65,17.593-0.979,23.529
			c-5.156,4.615-12.529,5.077-18.42,1.753v1.494c6.255,3.232,13.898,2.597,19.294-2.233
			C116.066,136.177,116.537,124.81,109.961,117.192"/>
		<polygon clip-path="url(#SVGID_4_)" fill="#FFFFFF" points="155.73,184.05 149.604,175.822 146.434,179.31 146.434,184.05 
			143.292,184.05 143.292,165.407 146.434,165.407 146.434,175.049 155.33,165.407 159.033,165.407 151.814,173.37 159.512,184.05 
					"/>
		<path clip-path="url(#SVGID_4_)" fill="#FFFFFF" d="M170.059,184.051v-1.731c-1.014,1.252-2.639,1.864-4.689,1.864
			c-3.063,0-4.979-1.891-4.979-4.395c0-2.583,1.944-4.235,5.353-4.262h4.288v-0.425c0-1.785-1.145-2.851-3.383-2.851
			c-1.357,0-2.77,0.479-4.181,1.438l-1.252-2.131c1.971-1.172,3.41-1.785,6.1-1.785c3.647,0,5.699,1.864,5.726,4.982l0.025,9.294
			H170.059z M170.03,179.07v-1.305h-3.834c-1.999,0-2.931,0.532-2.931,1.89c0,1.28,1.039,2.104,2.743,2.104
			C168.193,181.76,169.871,180.615,170.03,179.07"/>
		<polygon clip-path="url(#SVGID_4_)" fill="#138831" points="119.483,188.868 127.172,204.347 134.83,188.868 139.456,188.868 
			139.456,212.17 135.827,212.17 135.795,194.761 128.438,209.739 125.875,209.739 118.519,194.761 118.519,212.17 114.823,212.17 
			114.823,188.868 		"/>
		<path clip-path="url(#SVGID_4_)" fill="#138831" d="M155.169,212.169v-2.163c-1.264,1.565-3.294,2.33-5.858,2.33
			c-3.827,0-6.224-2.364-6.224-5.492c0-3.229,2.431-5.293,6.691-5.327h5.359v-0.531c0-2.23-1.432-3.562-4.229-3.562
			c-1.695,0-3.459,0.598-5.225,1.795l-1.563-2.662c2.462-1.464,4.26-2.23,7.623-2.23c4.56,0,7.123,2.331,7.155,6.226l0.034,11.617
			H155.169z M155.137,205.945v-1.632h-4.796c-2.495,0-3.66,0.666-3.66,2.363c0,1.598,1.299,2.63,3.429,2.63
			C152.839,209.307,154.937,207.875,155.137,205.945"/>
		<path clip-path="url(#SVGID_4_)" fill="#138831" d="M180.369,201.152v11.017h-3.828v-9.953c0-2.662-1.597-4.294-4.26-4.294
			c-3.162,0.034-5.06,2.398-5.06,5.526v8.721h-3.828V187.47h3.828v10.452c1.265-2.494,3.527-3.596,6.558-3.596
			C177.906,194.326,180.369,196.924,180.369,201.152"/>
		<path clip-path="url(#SVGID_4_)" fill="#138831" d="M201.475,203.282c0,5.358-3.761,9.021-9.22,9.021
			c-5.492,0-9.255-3.662-9.255-9.021c0-5.326,3.763-8.956,9.255-8.956C197.714,194.326,201.475,197.956,201.475,203.282
			 M186.829,203.349c0,3.429,2.23,5.76,5.426,5.76c3.162,0,5.392-2.331,5.392-5.76c0-3.396-2.229-5.759-5.392-5.759
			C189.06,197.59,186.829,199.952,186.829,203.349"/>
		<path clip-path="url(#SVGID_4_)" fill="#138831" d="M214.659,211.037c-1.397,0.832-2.864,1.299-4.362,1.299
			c-2.662,0-4.958-1.531-4.958-5.159v-9.187h-2.497v-2.865h2.497v-4.858h3.795v4.858h5.226v2.865h-5.226v8.488
			c0,1.829,0.699,2.396,1.896,2.396c0.799,0,1.631-0.266,2.663-0.767L214.659,211.037z"/>
		<path clip-path="url(#SVGID_4_)" fill="#138831" d="M222.349,197.355c-1.499,0-2.596,0.501-2.596,1.765
			c0,3.264,9.42,1.498,9.387,7.922c0,3.63-3.229,5.261-6.791,5.261c-2.596,0-5.358-0.865-7.123-2.464l1.365-2.729
			c1.531,1.365,3.995,2.197,5.926,2.197c1.631,0,2.895-0.565,2.895-1.897c0-3.629-9.32-1.6-9.287-7.99
			c0-3.593,3.129-5.124,6.525-5.124c2.229,0,4.593,0.665,6.19,1.798l-1.397,2.828C225.878,197.956,223.913,197.355,222.349,197.355"
			/>
		<path clip-path="url(#SVGID_4_)" fill="#138831" d="M242.788,212.169v-2.163c-1.265,1.565-3.295,2.33-5.859,2.33
			c-3.828,0-6.224-2.364-6.224-5.492c0-3.229,2.432-5.293,6.691-5.327h5.358v-0.531c0-2.23-1.432-3.562-4.227-3.562
			c-1.698,0-3.462,0.598-5.227,1.795l-1.563-2.662c2.462-1.464,4.261-2.23,7.622-2.23c4.561,0,7.123,2.331,7.156,6.226l0.034,11.617
			H242.788z M242.755,205.945v-1.632h-4.793c-2.497,0-3.661,0.666-3.661,2.363c0,1.598,1.297,2.63,3.429,2.63
			C240.458,209.307,242.556,207.875,242.755,205.945"/>
		<polygon clip-path="url(#SVGID_4_)" fill="#138831" points="251.512,194.462 256.438,208.409 261.298,194.462 265.125,194.462 
			258.335,212.17 254.375,212.17 247.518,194.462 		"/>
		<path clip-path="url(#SVGID_4_)" fill="#FFFFFF" d="M49.337,198.542h-9.402l-1.786,4.208h-3.275l8.229-18.645h3.224l8.15,18.645
			h-3.355L49.337,198.542z M48.138,195.744l-3.516-8.282l-3.516,8.282H48.138z"/>
		<path clip-path="url(#SVGID_4_)" fill="#FFFFFF" d="M79.778,193.934v8.816h-3.063v-7.963c0-2.158-1.278-3.465-3.357-3.465
			c-2.423,0.082-3.888,1.945-3.888,4.422v7.006h-3.063v-7.963c0-2.158-1.253-3.465-3.33-3.465c-2.451,0.082-3.942,1.945-3.942,4.422
			v7.006h-3.037v-14.17h3.037v2.742c0.985-1.996,2.797-2.849,5.141-2.849c2.53,0,4.26,1.252,4.926,3.409
			c0.905-2.37,2.798-3.409,5.38-3.409C77.833,188.474,79.778,190.552,79.778,193.934"/>
		<path clip-path="url(#SVGID_4_)" fill="#FFFFFF" d="M91.175,188.475v2.929c-2.85-0.16-4.661,1.519-4.901,3.942v7.404h-3.063
			v-14.169h3.063v2.822C87.233,189.485,88.937,188.475,91.175,188.475"/>
		<path clip-path="url(#SVGID_4_)" fill="#FFFFFF" d="M96.34,184.532c0,1.039-0.772,1.812-1.784,1.812
			c-1.012,0-1.784-0.772-1.784-1.812c0-1.065,0.771-1.838,1.784-1.838C95.568,182.694,96.34,183.467,96.34,184.532 M96.074,202.75
			h-3.036v-14.17h3.036V202.75z"/>
		<path clip-path="url(#SVGID_4_)" fill="#FFFFFF" d="M107.953,201.844c-1.119,0.666-2.29,1.039-3.488,1.039
			c-2.132,0-3.969-1.224-3.969-4.129v-7.351h-1.999v-2.291h1.999v-3.889h3.036v3.889h4.181v2.291h-4.181v6.793
			c0,1.463,0.56,1.916,1.518,1.916c0.639,0,1.305-0.212,2.131-0.613L107.953,201.844z"/>
		<path clip-path="url(#SVGID_4_)" fill-rule="evenodd" clip-rule="evenodd" fill="#FF8000" d="M220.901,107.417
			c-0.993-0.482-1.734-0.103-2.412,0.204c-6.443,2.899-12.896,2.781-19.637,0.825c-5.398-1.566-10.912-2.939-16.564-3.419
			c-10.116-0.856-19.164,2.646-27.934,7.078c-3.831,1.935-7.594,4.011-11.813,4.959c-3.746,0.842-5.121-0.583-4.421-4.344
			c0.589-3.173-0.124-4.448-3.177-5.512c-0.82-0.287-1.688-0.493-2.552-0.599c-10.857-1.324-21.471,0.218-31.974,2.81l-0.849,0.393
			c0,0,11.861-0.778,17.029,9.646c6.521-0.979,13.072-0.713,19.636,0.2c2.67,0.372,3.73,1.791,2.74,4.512
			c-0.395,1.086-0.604,2.271-0.693,3.425c-0.273,3.536,1.302,4.883,4.762,4.097c1.132-0.255,2.279-0.588,3.318-1.093
			c4.724-2.299,9.477-4.538,13.851-7.51c4.645-3.16,9.681-5.234,15.386-5.837c7.588-0.803,15.178-0.202,22.758-0.534
			c6.558-0.287,13.056-0.996,18.618-4.996C218.549,110.586,220.325,109.534,220.901,107.417"/>
		<path clip-path="url(#SVGID_4_)" fill-rule="evenodd" clip-rule="evenodd" fill="#138831" d="M220.901,131.409
			c-0.993-0.482-1.734-0.103-2.412,0.204c-6.443,2.9-12.896,2.782-19.637,0.826c-5.398-1.565-10.912-2.94-16.564-3.418
			c-10.116-0.857-19.164,2.645-27.934,7.077c-3.831,1.936-7.594,4.012-11.813,4.959c-3.746,0.843-5.121-0.582-4.421-4.344
			c0.589-3.172-0.124-4.448-3.177-5.512c-0.82-0.286-1.688-0.493-2.552-0.599c-4.528-0.552-9.013-0.599-13.466-0.287
			c-0.161,1.68-1.375,10.347-9.389,14.676c0.978-0.263,1.956-0.519,2.941-0.751c7.881-1.857,15.808-1.695,23.755-0.589
			c2.67,0.373,3.73,1.79,2.74,4.513c-0.395,1.084-0.604,2.27-0.693,3.423c-0.273,3.536,1.302,4.883,4.762,4.099
			c1.132-0.257,2.279-0.588,3.318-1.094c4.724-2.3,9.477-4.538,13.851-7.51c4.645-3.159,9.681-5.234,15.386-5.837
			c7.588-0.803,15.178-0.202,22.758-0.534c6.558-0.286,13.056-0.994,18.618-4.996C218.549,134.579,220.325,133.526,220.901,131.409"
			/>
		<polygon clip-path="url(#SVGID_4_)" fill-rule="evenodd" clip-rule="evenodd" fill="#FFFFFF" points="46.894,87.664 
			46.894,92.803 77.405,92.803 51.684,139.984 55.887,143.02 86.6,87.664 		"/>
		<polygon clip-path="url(#SVGID_4_)" fill-rule="evenodd" clip-rule="evenodd" fill="#FFFFFF" points="115.668,87.664 
			91.797,87.664 74.441,118.963 78.457,120.947 94.399,92.803 115.668,92.803 		"/>
	</g>
</g>
</svg>
