<?xml version="1.0" encoding="utf-8"?>
<!-- Generator: Adobe Illustrator 16.0.0, SVG Export Plug-In . SVG Version: 6.00 Build 0)  -->
<!DOCTYPE svg PUBLIC "-//W3C//DTD SVG 1.1//EN" "http://www.w3.org/Graphics/SVG/1.1/DTD/svg11.dtd">
<svg version="1.1" id="Layer_1" xmlns="http://www.w3.org/2000/svg" xmlns:xlink="http://www.w3.org/1999/xlink" x="0px" y="0px"
	 width="38px" height="38px" viewBox="0 0 38 38" enable-background="new 0 0 38 38" xml:space="preserve">
<g>
	<path fill="#FF8800" d="M19,22.125c-1.723,0-3.125-1.401-3.125-3.125c0-1.723,1.402-3.125,3.125-3.125
		c1.724,0,3.125,1.402,3.125,3.125C22.125,20.724,20.724,22.125,19,22.125z M24.005,12.871c-0.62,0-1.126,0.504-1.126,1.125
		c0,0.621,0.506,1.125,1.126,1.125c0.621,0,1.125-0.504,1.125-1.125C25.13,13.375,24.625,12.871,24.005,12.871z M19,14.186
		c-2.655,0-4.814,2.16-4.814,4.814s2.16,4.814,4.814,4.814s4.814-2.16,4.814-4.814S21.654,14.186,19,14.186z M19,26.686
		c-2.499,0-2.795-0.01-3.788-0.054c-0.918-0.042-1.413-0.194-1.741-0.324c-0.438-0.169-0.75-0.372-1.078-0.701
		c-0.329-0.328-0.532-0.64-0.702-1.077c-0.128-0.329-0.281-0.824-0.323-1.741c-0.045-0.993-0.055-1.29-0.055-3.788
		c0-2.499,0.01-2.796,0.055-3.789c0.042-0.917,0.194-1.412,0.323-1.74c0.169-0.438,0.373-0.75,0.702-1.078
		c0.329-0.33,0.64-0.533,1.078-0.702c0.328-0.128,0.822-0.281,1.741-0.324c0.993-0.044,1.29-0.054,3.788-0.054
		c2.498,0,2.795,0.01,3.788,0.054c0.919,0.043,1.412,0.195,1.741,0.324c0.438,0.169,0.749,0.373,1.077,0.702
		c0.329,0.327,0.532,0.64,0.701,1.078c0.129,0.328,0.282,0.822,0.324,1.74c0.046,0.992,0.054,1.291,0.054,3.789
		c0,2.498-0.009,2.795-0.054,3.788c-0.042,0.917-0.194,1.412-0.324,1.741c-0.169,0.438-0.372,0.749-0.701,1.077
		c-0.328,0.329-0.64,0.532-1.077,0.701c-0.329,0.129-0.822,0.282-1.741,0.324C21.795,26.676,21.498,26.686,19,26.686z M19,9.625
		c-2.539,0-2.87,0.011-3.866,0.056c-0.905,0.042-1.607,0.176-2.275,0.435c-0.656,0.256-1.167,0.589-1.66,1.083
		c-0.494,0.492-0.827,1.004-1.082,1.66c-0.261,0.668-0.395,1.371-0.436,2.275C9.636,16.129,9.625,16.461,9.625,19
		s0.011,2.869,0.056,3.865c0.042,0.905,0.176,1.606,0.436,2.275c0.255,0.656,0.588,1.167,1.082,1.66
		c0.493,0.493,1.004,0.827,1.66,1.082c0.668,0.26,1.371,0.395,2.275,0.436c0.995,0.045,1.327,0.056,3.866,0.056
		s2.87-0.012,3.866-0.056c0.905-0.042,1.606-0.177,2.275-0.436c0.654-0.255,1.167-0.589,1.659-1.082
		c0.493-0.493,0.826-1.004,1.082-1.66c0.261-0.669,0.395-1.37,0.437-2.275c0.045-0.994,0.055-1.326,0.055-3.865
		s-0.011-2.871-0.055-3.866c-0.043-0.905-0.176-1.607-0.437-2.275c-0.256-0.656-0.589-1.168-1.082-1.66
		c-0.492-0.494-1.005-0.827-1.659-1.083c-0.669-0.26-1.372-0.394-2.275-0.435C21.869,9.636,21.539,9.625,19,9.625z M19,34
		c-8.271,0-15-6.729-15-15c0-8.271,6.729-15,15-15s15,6.729,15,15C34,27.271,27.271,34,19,34z"/>
</g>
</svg>
