<?xml version="1.0" encoding="utf-8"?>
<!-- Generator: Adobe Illustrator 16.0.0, SVG Export Plug-In . SVG Version: 6.00 Build 0)  -->
<!DOCTYPE svg PUBLIC "-//W3C//DTD SVG 1.1//EN" "http://www.w3.org/Graphics/SVG/1.1/DTD/svg11.dtd">
<svg version="1.1" id="Layer_1" xmlns="http://www.w3.org/2000/svg" xmlns:xlink="http://www.w3.org/1999/xlink" x="0px" y="0px"
	 width="202.451px" height="120.098px" viewBox="0 0 202.451 120.098" enable-background="new 0 0 202.451 120.098"
	 xml:space="preserve">
<path fill="#FFFFFF" d="M28.465,79.29H18.354l-1.92,4.524h-3.522l8.851-20.049h3.466l8.766,20.049h-3.609L28.465,79.29z
	 M27.176,76.282l-3.782-8.908l-3.78,8.908H27.176z"/>
<polygon fill="#FFFFFF" points="47.373,68.607 47.373,70.81 38.665,81.124 47.631,81.154 47.631,83.845 34.597,83.816 
	34.597,81.581 43.307,71.269 34.854,71.269 34.854,68.576 "/>
<g>
	<g>
		<g>
			<g>
				<defs>
					<rect id="SVGID_1_" x="-62.981" y="-104.61" width="332.003" height="332.003"/>
				</defs>
				<clipPath id="SVGID_2_">
					<use xlink:href="#SVGID_1_"  overflow="visible"/>
				</clipPath>
				<path clip-path="url(#SVGID_2_)" fill="#FFFFFF" d="M59.262,83.816v-1.86c-1.089,1.348-2.835,2.007-5.042,2.007
					c-3.293,0-5.356-2.034-5.356-4.728c0-2.778,2.091-4.556,5.757-4.584h4.611v-0.458c0-1.921-1.231-3.066-3.638-3.066
					c-1.46,0-2.979,0.518-4.498,1.546l-1.345-2.29c2.119-1.261,3.667-1.917,6.56-1.917c3.924,0,6.129,2.004,6.158,5.355l0.029,9.995
					H59.262L59.262,83.816z M59.233,78.459v-1.404h-4.125c-2.147,0-3.15,0.574-3.15,2.034c0,1.375,1.117,2.264,2.951,2.264
					C57.257,81.353,59.062,80.12,59.233,78.459"/>
			</g>
		</g>
	</g>
	<g>
		<g>
			<g>
				<defs>
					<rect id="SVGID_3_" x="-62.981" y="-104.61" width="332.003" height="332.003"/>
				</defs>
				<clipPath id="SVGID_4_">
					<use xlink:href="#SVGID_3_"  overflow="visible"/>
				</clipPath>
				<path clip-path="url(#SVGID_4_)" fill="#FFFFFF" d="M80.721,62.563v21.25h-3.295v-2.602c-1.088,1.773-2.923,2.75-5.356,2.75
					c-4.384,0-7.305-3.182-7.305-7.821c0-4.582,2.95-7.704,7.246-7.704c2.463,0,4.297,1.002,5.415,2.776v-8.648L80.721,62.563
					L80.721,62.563z M77.426,76.254c0-2.948-1.918-5.011-4.67-5.011c-2.75,0-4.668,2.091-4.697,5.011
					c0.029,2.892,1.918,4.958,4.697,4.958C75.507,81.21,77.426,79.146,77.426,76.254"/>
			</g>
		</g>
	</g>
	<g>
		<g>
			<g>
				<defs>
					<rect id="SVGID_5_" x="-62.981" y="-104.61" width="332.003" height="332.003"/>
				</defs>
				<clipPath id="SVGID_6_">
					<use xlink:href="#SVGID_5_"  overflow="visible"/>
				</clipPath>
				<path clip-path="url(#SVGID_6_)" fill="#FFFFFF" d="M88.568,64.222c0,1.119-0.831,1.95-1.919,1.95s-1.917-0.831-1.917-1.95
					c0-1.145,0.83-1.975,1.917-1.975C87.738,62.247,88.568,63.077,88.568,64.222 M88.284,83.816h-3.267V68.576h3.267V83.816z"/>
			</g>
		</g>
	</g>
	<g>
		<g>
			<g>
				<defs>
					<rect id="SVGID_7_" x="-62.981" y="-104.61" width="332.003" height="332.003"/>
				</defs>
				<clipPath id="SVGID_8_">
					<use xlink:href="#SVGID_7_"  overflow="visible"/>
				</clipPath>
				<polygon clip-path="url(#SVGID_8_)" fill="#FFFFFF" points="47.511,31.685 54.462,39.05 55.932,41.098 57.408,43.149 
					55.597,41.399 53.791,39.652 				"/>
			</g>
		</g>
	</g>
	<g>
		<g>
			<g>
				<defs>
					<rect id="SVGID_9_" x="-62.981" y="-104.61" width="332.003" height="332.003"/>
				</defs>
				<clipPath id="SVGID_10_">
					<use xlink:href="#SVGID_9_"  overflow="visible"/>
				</clipPath>
				<polygon clip-path="url(#SVGID_10_)" fill="#FFFFFF" points="50.643,29.58 55.566,38.453 56.484,40.799 57.408,43.149 
					56.084,41 54.759,38.849 				"/>
			</g>
		</g>
	</g>
	<g>
		<g>
			<g>
				<defs>
					<rect id="SVGID_11_" x="-62.981" y="-104.61" width="332.003" height="332.003"/>
				</defs>
				<clipPath id="SVGID_12_">
					<use xlink:href="#SVGID_11_"  overflow="visible"/>
				</clipPath>
				<polygon clip-path="url(#SVGID_12_)" fill="#FFFFFF" points="54.228,28.4 56.797,38.175 57.104,40.66 57.408,43.149 
					56.655,40.741 55.904,38.336 				"/>
			</g>
		</g>
	</g>
	<g>
		<g>
			<g>
				<defs>
					<rect id="SVGID_13_" x="-62.981" y="-104.61" width="332.003" height="332.003"/>
				</defs>
				<clipPath id="SVGID_14_">
					<use xlink:href="#SVGID_13_"  overflow="visible"/>
				</clipPath>
				<polygon clip-path="url(#SVGID_14_)" fill="#FFFFFF" points="58.028,28.217 58.071,38.235 57.74,40.688 57.408,43.149 
					57.284,40.654 57.159,38.154 				"/>
			</g>
		</g>
	</g>
	<g>
		<g>
			<g>
				<defs>
					<rect id="SVGID_15_" x="-62.981" y="-104.61" width="332.003" height="332.003"/>
				</defs>
				<clipPath id="SVGID_16_">
					<use xlink:href="#SVGID_15_"  overflow="visible"/>
				</clipPath>
				<polygon clip-path="url(#SVGID_16_)" fill="#FFFFFF" points="61.791,29.058 59.295,38.634 58.355,40.89 57.408,43.148 
					57.919,40.734 58.428,38.318 				"/>
			</g>
		</g>
	</g>
	<g>
		<g>
			<g>
				<defs>
					<rect id="SVGID_17_" x="-62.981" y="-104.61" width="332.003" height="332.003"/>
				</defs>
				<clipPath id="SVGID_18_">
					<use xlink:href="#SVGID_17_"  overflow="visible"/>
				</clipPath>
				<polygon clip-path="url(#SVGID_18_)" fill="#FFFFFF" points="65.26,30.862 60.396,39.336 58.903,41.243 57.409,43.149 
					58.518,40.979 59.629,38.808 				"/>
			</g>
		</g>
	</g>
	<g>
		<g>
			<g>
				<defs>
					<rect id="SVGID_19_" x="-62.981" y="-104.61" width="332.003" height="332.003"/>
				</defs>
				<clipPath id="SVGID_20_">
					<use xlink:href="#SVGID_19_"  overflow="visible"/>
				</clipPath>
				<polygon clip-path="url(#SVGID_20_)" fill="#FFFFFF" points="68.187,33.496 61.288,40.305 59.352,41.727 57.409,43.149 
					59.041,41.368 60.671,39.59 				"/>
			</g>
		</g>
	</g>
	<g>
		<g>
			<g>
				<defs>
					<rect id="SVGID_21_" x="-62.981" y="-104.61" width="332.003" height="332.003"/>
				</defs>
				<clipPath id="SVGID_22_">
					<use xlink:href="#SVGID_21_"  overflow="visible"/>
				</clipPath>
				<polygon clip-path="url(#SVGID_22_)" fill="#FFFFFF" points="70.385,36.798 61.922,41.465 59.661,42.306 57.408,43.149 
					59.457,41.885 61.502,40.618 				"/>
			</g>
		</g>
	</g>
	<g>
		<g>
			<g>
				<defs>
					<rect id="SVGID_23_" x="-62.981" y="-104.61" width="332.003" height="332.003"/>
				</defs>
				<clipPath id="SVGID_24_">
					<use xlink:href="#SVGID_23_"  overflow="visible"/>
				</clipPath>
				<polygon clip-path="url(#SVGID_24_)" fill="#FFFFFF" points="71.691,40.526 62.246,42.74 59.831,42.947 57.409,43.149 
					59.727,42.481 62.048,41.822 				"/>
			</g>
		</g>
	</g>
	<g>
		<g>
			<g>
				<defs>
					<rect id="SVGID_25_" x="-62.981" y="-104.61" width="332.003" height="332.003"/>
				</defs>
				<clipPath id="SVGID_26_">
					<use xlink:href="#SVGID_25_"  overflow="visible"/>
				</clipPath>
				<polygon clip-path="url(#SVGID_26_)" fill="#FFFFFF" points="72.029,44.431 62.239,44.039 59.824,43.597 57.409,43.148 
					59.844,43.123 62.279,43.108 				"/>
			</g>
		</g>
	</g>
	<g>
		<g>
			<g>
				<defs>
					<rect id="SVGID_27_" x="-62.981" y="-104.61" width="332.003" height="332.003"/>
				</defs>
				<clipPath id="SVGID_28_">
					<use xlink:href="#SVGID_27_"  overflow="visible"/>
				</clipPath>
				<polygon clip-path="url(#SVGID_28_)" fill="#FFFFFF" points="71.371,48.254 61.902,45.281 59.658,44.22 57.408,43.149 
					59.793,43.774 62.179,44.405 				"/>
			</g>
		</g>
	</g>
	<g>
		<g>
			<g>
				<defs>
					<rect id="SVGID_29_" x="-62.981" y="-104.61" width="332.003" height="332.003"/>
				</defs>
				<clipPath id="SVGID_30_">
					<use xlink:href="#SVGID_29_"  overflow="visible"/>
				</clipPath>
				<polygon clip-path="url(#SVGID_30_)" fill="#FFFFFF" points="69.76,51.724 61.262,46.382 59.336,44.767 57.408,43.148 
					59.578,44.382 61.745,45.611 				"/>
			</g>
		</g>
	</g>
	<g>
		<g>
			<g>
				<defs>
					<rect id="SVGID_31_" x="-62.981" y="-104.61" width="332.003" height="332.003"/>
				</defs>
				<clipPath id="SVGID_32_">
					<use xlink:href="#SVGID_31_"  overflow="visible"/>
				</clipPath>
				<polygon clip-path="url(#SVGID_32_)" fill="#FFFFFF" points="67.305,54.611 60.357,47.257 58.884,45.205 57.408,43.149 
					59.219,44.905 61.029,46.656 				"/>
			</g>
		</g>
	</g>
	<g>
		<g>
			<g>
				<defs>
					<rect id="SVGID_33_" x="-62.981" y="-104.61" width="332.003" height="332.003"/>
				</defs>
				<clipPath id="SVGID_34_">
					<use xlink:href="#SVGID_33_"  overflow="visible"/>
				</clipPath>
				<polygon clip-path="url(#SVGID_34_)" fill="#FFFFFF" points="64.18,56.721 59.248,47.846 58.328,45.501 57.408,43.148 
					58.737,45.303 60.06,47.457 				"/>
			</g>
		</g>
	</g>
	<g>
		<g>
			<g>
				<defs>
					<rect id="SVGID_35_" x="-62.981" y="-104.61" width="332.003" height="332.003"/>
				</defs>
				<clipPath id="SVGID_36_">
					<use xlink:href="#SVGID_35_"  overflow="visible"/>
				</clipPath>
				<polygon clip-path="url(#SVGID_36_)" fill="#FFFFFF" points="60.592,57.907 58.018,48.129 57.709,45.64 57.409,43.149 
					58.163,45.557 58.909,47.964 				"/>
			</g>
		</g>
	</g>
	<g>
		<g>
			<g>
				<defs>
					<rect id="SVGID_37_" x="-62.981" y="-104.61" width="332.003" height="332.003"/>
				</defs>
				<clipPath id="SVGID_38_">
					<use xlink:href="#SVGID_37_"  overflow="visible"/>
				</clipPath>
				<polygon clip-path="url(#SVGID_38_)" fill="#FFFFFF" points="56.783,58.08 56.741,48.064 57.073,45.604 57.408,43.148 
					57.532,45.649 57.654,48.144 				"/>
			</g>
		</g>
	</g>
	<g>
		<g>
			<g>
				<defs>
					<rect id="SVGID_39_" x="-62.981" y="-104.61" width="332.003" height="332.003"/>
				</defs>
				<clipPath id="SVGID_40_">
					<use xlink:href="#SVGID_39_"  overflow="visible"/>
				</clipPath>
				<polygon clip-path="url(#SVGID_40_)" fill="#FFFFFF" points="53.021,57.241 55.518,47.667 56.461,45.404 57.408,43.149 
					56.898,45.572 56.387,47.986 				"/>
			</g>
		</g>
	</g>
	<g>
		<g>
			<g>
				<defs>
					<rect id="SVGID_41_" x="-62.981" y="-104.61" width="332.003" height="332.003"/>
				</defs>
				<clipPath id="SVGID_42_">
					<use xlink:href="#SVGID_41_"  overflow="visible"/>
				</clipPath>
				<polygon clip-path="url(#SVGID_42_)" fill="#FFFFFF" points="49.558,55.444 54.417,46.963 55.917,45.055 57.409,43.149 
					56.295,45.321 55.187,47.495 				"/>
			</g>
		</g>
	</g>
	<g>
		<g>
			<g>
				<defs>
					<rect id="SVGID_43_" x="-62.981" y="-104.61" width="332.003" height="332.003"/>
				</defs>
				<clipPath id="SVGID_44_">
					<use xlink:href="#SVGID_43_"  overflow="visible"/>
				</clipPath>
				<polygon clip-path="url(#SVGID_44_)" fill="#FFFFFF" points="46.627,52.799 53.521,45.991 55.463,44.568 57.409,43.149 
					55.775,44.929 54.139,46.705 				"/>
			</g>
		</g>
	</g>
	<g>
		<g>
			<g>
				<defs>
					<rect id="SVGID_45_" x="-62.981" y="-104.61" width="332.003" height="332.003"/>
				</defs>
				<clipPath id="SVGID_46_">
					<use xlink:href="#SVGID_45_"  overflow="visible"/>
				</clipPath>
				<polygon clip-path="url(#SVGID_46_)" fill="#FFFFFF" points="44.435,49.509 52.895,44.837 55.152,43.993 57.409,43.148 
					55.362,44.415 53.31,45.68 				"/>
			</g>
		</g>
	</g>
	<g>
		<g>
			<g>
				<defs>
					<rect id="SVGID_47_" x="-62.981" y="-104.61" width="332.003" height="332.003"/>
				</defs>
				<clipPath id="SVGID_48_">
					<use xlink:href="#SVGID_47_"  overflow="visible"/>
				</clipPath>
				<polygon clip-path="url(#SVGID_48_)" fill="#FFFFFF" points="43.121,45.773 52.569,43.564 54.989,43.359 57.408,43.149 
					55.089,43.815 52.765,44.478 				"/>
			</g>
		</g>
	</g>
	<g>
		<g>
			<g>
				<defs>
					<rect id="SVGID_49_" x="-62.981" y="-104.61" width="332.003" height="332.003"/>
				</defs>
				<clipPath id="SVGID_50_">
					<use xlink:href="#SVGID_49_"  overflow="visible"/>
				</clipPath>
				<polygon clip-path="url(#SVGID_50_)" fill="#FFFFFF" points="42.784,41.866 52.575,42.259 54.994,42.706 57.408,43.149 
					54.97,43.168 52.534,43.191 				"/>
			</g>
		</g>
	</g>
	<g>
		<g>
			<g>
				<defs>
					<rect id="SVGID_51_" x="-62.981" y="-104.61" width="332.003" height="332.003"/>
				</defs>
				<clipPath id="SVGID_52_">
					<use xlink:href="#SVGID_51_"  overflow="visible"/>
				</clipPath>
				<polygon clip-path="url(#SVGID_52_)" fill="#FFFFFF" points="43.447,38.05 52.91,41.015 55.16,42.08 57.409,43.148 
					55.019,42.525 52.638,41.896 				"/>
			</g>
		</g>
	</g>
	<g>
		<g>
			<g>
				<defs>
					<rect id="SVGID_53_" x="-62.981" y="-104.61" width="332.003" height="332.003"/>
				</defs>
				<clipPath id="SVGID_54_">
					<use xlink:href="#SVGID_53_"  overflow="visible"/>
				</clipPath>
				<polygon clip-path="url(#SVGID_54_)" fill="#FFFFFF" points="45.062,34.579 53.556,39.925 55.485,41.538 57.409,43.149 
					55.233,41.918 53.066,40.688 				"/>
			</g>
		</g>
	</g>
	<g>
		<g>
			<g>
				<defs>
					<rect id="SVGID_55_" x="-62.981" y="-104.61" width="332.003" height="332.003"/>
				</defs>
				<clipPath id="SVGID_56_">
					<use xlink:href="#SVGID_55_"  overflow="visible"/>
				</clipPath>
				<path clip-path="url(#SVGID_56_)" fill="#FFFFFF" d="M52.279,28.973c0.362-0.175,0.808-0.014,0.99,0.361
					c0.187,0.372,0.049,0.822-0.313,0.997c-0.356,0.172-0.8,0.013-0.979-0.358C51.785,29.594,51.923,29.145,52.279,28.973"/>
			</g>
		</g>
	</g>
	<g>
		<g>
			<g>
				<defs>
					<rect id="SVGID_57_" x="-62.981" y="-104.61" width="332.003" height="332.003"/>
				</defs>
				<clipPath id="SVGID_58_">
					<use xlink:href="#SVGID_57_"  overflow="visible"/>
				</clipPath>
				<path clip-path="url(#SVGID_58_)" fill="#FFFFFF" d="M55.987,28.251c0.395-0.067,0.782,0.199,0.874,0.61
					c0.083,0.404-0.161,0.795-0.557,0.869c-0.391,0.075-0.784-0.203-0.87-0.605C55.344,28.717,55.594,28.334,55.987,28.251"/>
			</g>
		</g>
	</g>
	<g>
		<g>
			<g>
				<defs>
					<rect id="SVGID_59_" x="-62.981" y="-104.61" width="332.003" height="332.003"/>
				</defs>
				<clipPath id="SVGID_60_">
					<use xlink:href="#SVGID_59_"  overflow="visible"/>
				</clipPath>
				<path clip-path="url(#SVGID_60_)" fill="#FFFFFF" d="M59.79,28.55c0.4,0.031,0.716,0.399,0.696,0.806
					c-0.014,0.415-0.358,0.726-0.764,0.685c-0.399-0.029-0.717-0.396-0.696-0.806C59.043,28.823,59.385,28.515,59.79,28.55"/>
			</g>
		</g>
	</g>
	<g>
		<g>
			<g>
				<defs>
					<rect id="SVGID_61_" x="-62.981" y="-104.61" width="332.003" height="332.003"/>
				</defs>
				<clipPath id="SVGID_62_">
					<use xlink:href="#SVGID_61_"  overflow="visible"/>
				</clipPath>
				<path clip-path="url(#SVGID_62_)" fill="#FFFFFF" d="M63.427,29.842c0.384,0.135,0.602,0.571,0.48,0.961
					c-0.126,0.384-0.535,0.589-0.92,0.446c-0.382-0.141-0.596-0.571-0.482-0.959C62.635,29.902,63.043,29.703,63.427,29.842"/>
			</g>
		</g>
	</g>
	<g>
		<g>
			<g>
				<defs>
					<rect id="SVGID_63_" x="-62.981" y="-104.61" width="332.003" height="332.003"/>
				</defs>
				<clipPath id="SVGID_64_">
					<use xlink:href="#SVGID_63_"  overflow="visible"/>
				</clipPath>
				<path clip-path="url(#SVGID_64_)" fill="#FFFFFF" d="M66.657,32.042c0.338,0.235,0.438,0.698,0.219,1.037
					c-0.214,0.343-0.664,0.426-1.006,0.188c-0.346-0.236-0.441-0.703-0.229-1.042C65.861,31.884,66.312,31.805,66.657,32.042"/>
			</g>
		</g>
	</g>
	<g>
		<g>
			<g>
				<defs>
					<rect id="SVGID_65_" x="-62.981" y="-104.61" width="332.003" height="332.003"/>
				</defs>
				<clipPath id="SVGID_66_">
					<use xlink:href="#SVGID_65_"  overflow="visible"/>
				</clipPath>
				<path clip-path="url(#SVGID_66_)" fill="#FFFFFF" d="M69.253,34.991c0.279,0.322,0.252,0.786-0.047,1.056
					c-0.296,0.264-0.753,0.231-1.031-0.089c-0.272-0.316-0.253-0.791,0.044-1.056C68.519,34.635,68.981,34.677,69.253,34.991"/>
			</g>
		</g>
	</g>
	<g>
		<g>
			<g>
				<defs>
					<rect id="SVGID_67_" x="-62.981" y="-104.61" width="332.003" height="332.003"/>
				</defs>
				<clipPath id="SVGID_68_">
					<use xlink:href="#SVGID_67_"  overflow="visible"/>
				</clipPath>
				<path clip-path="url(#SVGID_68_)" fill="#FFFFFF" d="M71.047,38.505c0.186,0.378,0.051,0.824-0.314,0.993
					c-0.359,0.18-0.799,0.018-0.989-0.358c-0.18-0.373-0.042-0.813,0.313-0.996C70.423,37.972,70.856,38.129,71.047,38.505"/>
			</g>
		</g>
	</g>
	<g>
		<g>
			<g>
				<defs>
					<rect id="SVGID_69_" x="-62.981" y="-104.61" width="332.003" height="332.003"/>
				</defs>
				<clipPath id="SVGID_70_">
					<use xlink:href="#SVGID_69_"  overflow="visible"/>
				</clipPath>
				<path clip-path="url(#SVGID_70_)" fill="#FFFFFF" d="M71.905,42.336c0.09,0.4-0.16,0.791-0.55,0.868
					c-0.398,0.069-0.787-0.205-0.875-0.607c-0.092-0.411,0.163-0.796,0.558-0.868C71.425,41.653,71.815,41.92,71.905,42.336"/>
			</g>
		</g>
	</g>
	<g>
		<g>
			<g>
				<defs>
					<rect id="SVGID_71_" x="-62.981" y="-104.61" width="332.003" height="332.003"/>
				</defs>
				<clipPath id="SVGID_72_">
					<use xlink:href="#SVGID_71_"  overflow="visible"/>
				</clipPath>
				<path clip-path="url(#SVGID_72_)" fill="#FFFFFF" d="M71.778,46.216c-0.015,0.415-0.352,0.718-0.76,0.682
					c-0.404-0.037-0.717-0.398-0.699-0.811c0.02-0.415,0.357-0.715,0.762-0.681C71.482,45.442,71.796,45.803,71.778,46.216"/>
			</g>
		</g>
	</g>
	<g>
		<g>
			<g>
				<defs>
					<rect id="SVGID_73_" x="-62.981" y="-104.61" width="332.003" height="332.003"/>
				</defs>
				<clipPath id="SVGID_74_">
					<use xlink:href="#SVGID_73_"  overflow="visible"/>
				</clipPath>
				<path clip-path="url(#SVGID_74_)" fill="#FFFFFF" d="M70.676,49.891c-0.123,0.389-0.532,0.594-0.919,0.442
					c-0.384-0.135-0.599-0.566-0.476-0.953c0.119-0.388,0.528-0.584,0.913-0.448C70.58,49.071,70.798,49.501,70.676,49.891"/>
			</g>
		</g>
	</g>
	<g>
		<g>
			<g>
				<defs>
					<rect id="SVGID_75_" x="-62.981" y="-104.61" width="332.003" height="332.003"/>
				</defs>
				<clipPath id="SVGID_76_">
					<use xlink:href="#SVGID_75_"  overflow="visible"/>
				</clipPath>
				<path clip-path="url(#SVGID_76_)" fill="#FFFFFF" d="M68.666,53.109c-0.218,0.335-0.671,0.418-1.006,0.186
					c-0.345-0.238-0.445-0.707-0.225-1.044c0.209-0.346,0.664-0.426,1.006-0.187C68.784,52.299,68.881,52.765,68.666,53.109"/>
			</g>
		</g>
	</g>
	<g>
		<g>
			<g>
				<defs>
					<rect id="SVGID_77_" x="-62.981" y="-104.61" width="332.003" height="332.003"/>
				</defs>
				<clipPath id="SVGID_78_">
					<use xlink:href="#SVGID_77_"  overflow="visible"/>
				</clipPath>
				<path clip-path="url(#SVGID_78_)" fill="#FFFFFF" d="M65.889,55.646c-0.293,0.261-0.763,0.22-1.033-0.093
					c-0.276-0.319-0.253-0.797,0.039-1.057c0.3-0.269,0.764-0.229,1.038,0.09C66.205,54.901,66.188,55.379,65.889,55.646"/>
			</g>
		</g>
	</g>
	<g>
		<g>
			<g>
				<defs>
					<rect id="SVGID_79_" x="-62.981" y="-104.61" width="332.003" height="332.003"/>
				</defs>
				<clipPath id="SVGID_80_">
					<use xlink:href="#SVGID_79_"  overflow="visible"/>
				</clipPath>
				<path clip-path="url(#SVGID_80_)" fill="#FFFFFF" d="M62.533,57.326c-0.356,0.176-0.8,0.014-0.987-0.358
					c-0.19-0.376-0.048-0.827,0.31-0.998c0.355-0.175,0.8-0.017,0.986,0.362C63.029,56.706,62.89,57.154,62.533,57.326"/>
			</g>
		</g>
	</g>
	<g>
		<g>
			<g>
				<defs>
					<rect id="SVGID_81_" x="-62.981" y="-104.61" width="332.003" height="332.003"/>
				</defs>
				<clipPath id="SVGID_82_">
					<use xlink:href="#SVGID_81_"  overflow="visible"/>
				</clipPath>
				<path clip-path="url(#SVGID_82_)" fill="#FFFFFF" d="M58.828,58.045c-0.393,0.072-0.787-0.199-0.871-0.606
					c-0.088-0.405,0.157-0.795,0.555-0.863c0.391-0.079,0.785,0.192,0.867,0.6C59.47,57.586,59.224,57.974,58.828,58.045"/>
			</g>
		</g>
	</g>
	<g>
		<g>
			<g>
				<defs>
					<rect id="SVGID_83_" x="-62.981" y="-104.61" width="332.003" height="332.003"/>
				</defs>
				<clipPath id="SVGID_84_">
					<use xlink:href="#SVGID_83_"  overflow="visible"/>
				</clipPath>
				<path clip-path="url(#SVGID_84_)" fill="#FFFFFF" d="M55.026,57.744c-0.399-0.032-0.713-0.394-0.694-0.806
					c0.013-0.41,0.357-0.718,0.761-0.682c0.403,0.036,0.716,0.396,0.694,0.805C55.774,57.479,55.431,57.786,55.026,57.744"/>
			</g>
		</g>
	</g>
	<g>
		<g>
			<g>
				<defs>
					<rect id="SVGID_85_" x="-62.981" y="-104.61" width="332.003" height="332.003"/>
				</defs>
				<clipPath id="SVGID_86_">
					<use xlink:href="#SVGID_85_"  overflow="visible"/>
				</clipPath>
				<path clip-path="url(#SVGID_86_)" fill="#FFFFFF" d="M56.158,41.7c0.751-0.669,1.92-0.569,2.611,0.229
					c0.693,0.805,0.641,1.993-0.112,2.667c-0.751,0.669-1.918,0.573-2.611-0.229C55.357,43.568,55.409,42.373,56.158,41.7"/>
			</g>
		</g>
	</g>
	<g>
		<g>
			<g>
				<defs>
					<rect id="SVGID_87_" x="-62.981" y="-104.61" width="332.003" height="332.003"/>
				</defs>
				<clipPath id="SVGID_88_">
					<use xlink:href="#SVGID_87_"  overflow="visible"/>
				</clipPath>
				<path clip-path="url(#SVGID_88_)" fill="#FFFFFF" d="M68.563,33.16c-4.567-5.29-11.693-6.854-17.514-4.358v1.288
					c5.472-2.613,12.337-1.244,16.694,3.805c5.241,6.068,4.862,15.14-0.844,20.248c-4.437,3.972-10.781,4.369-15.85,1.508v1.286
					c5.383,2.781,11.959,2.234,16.603-1.921C73.817,49.496,74.222,39.715,68.563,33.16"/>
			</g>
		</g>
	</g>
	<g>
		<g>
			<g>
				<defs>
					<rect id="SVGID_89_" x="-62.981" y="-104.61" width="332.003" height="332.003"/>
				</defs>
				<clipPath id="SVGID_90_">
					<use xlink:href="#SVGID_89_"  overflow="visible"/>
				</clipPath>
				<polygon clip-path="url(#SVGID_90_)" fill="#FFFFFF" points="107.951,90.696 102.681,83.615 99.951,86.615 99.951,90.696 
					97.247,90.696 97.247,74.652 99.951,74.652 99.951,82.948 107.606,74.652 110.793,74.652 104.581,81.503 111.205,90.696 				"/>
			</g>
		</g>
	</g>
	<g>
		<g>
			<g>
				<defs>
					<rect id="SVGID_91_" x="-62.981" y="-104.61" width="332.003" height="332.003"/>
				</defs>
				<clipPath id="SVGID_92_">
					<use xlink:href="#SVGID_91_"  overflow="visible"/>
				</clipPath>
				<path clip-path="url(#SVGID_92_)" fill="#FFFFFF" d="M120.28,90.697v-1.491c-0.872,1.079-2.271,1.604-4.034,1.604
					c-2.636,0-4.286-1.628-4.286-3.783c0-2.223,1.673-3.645,4.607-3.666h3.689v-0.365c0-1.537-0.986-2.455-2.912-2.455
					c-1.169,0-2.383,0.412-3.599,1.237l-1.077-1.832c1.693-1.008,2.93-1.536,5.246-1.536c3.141,0,4.906,1.604,4.928,4.286
					l0.023,8.001L120.28,90.697L120.28,90.697z M120.258,86.409v-1.124h-3.299c-1.722,0-2.521,0.457-2.521,1.629
					c0,1.1,0.893,1.81,2.36,1.81C118.676,88.722,120.12,87.74,120.258,86.409"/>
			</g>
		</g>
	</g>
	<g>
		<g>
			<g>
				<defs>
					<rect id="SVGID_93_" x="-62.981" y="-104.61" width="332.003" height="332.003"/>
				</defs>
				<clipPath id="SVGID_94_">
					<use xlink:href="#SVGID_93_"  overflow="visible"/>
				</clipPath>
				<polygon clip-path="url(#SVGID_94_)" fill="#FFFFFF" points="76.759,94.842 83.375,108.16 89.965,94.842 93.945,94.842 
					93.945,114.892 90.823,114.892 90.796,99.912 84.463,112.8 82.258,112.8 75.929,99.912 75.929,114.892 72.748,114.892 
					72.748,94.842 				"/>
			</g>
		</g>
	</g>
	<g>
		<g>
			<g>
				<defs>
					<rect id="SVGID_95_" x="-62.981" y="-104.61" width="332.003" height="332.003"/>
				</defs>
				<clipPath id="SVGID_96_">
					<use xlink:href="#SVGID_95_"  overflow="visible"/>
				</clipPath>
				<path clip-path="url(#SVGID_96_)" fill="#FFFFFF" d="M107.47,114.891v-1.858c-1.09,1.345-2.838,2.006-5.043,2.006
					c-3.296,0-5.357-2.035-5.357-4.729c0-2.778,2.092-4.556,5.757-4.584h4.611v-0.458c0-1.918-1.231-3.065-3.64-3.065
					c-1.459,0-2.977,0.516-4.495,1.545l-1.346-2.29c2.12-1.261,3.667-1.919,6.561-1.919c3.924,0,6.131,2.006,6.154,5.356l0.03,9.995
					L107.47,114.891L107.47,114.891z M107.44,109.535v-1.403h-4.127c-2.146,0-3.149,0.572-3.149,2.034
					c0,1.374,1.118,2.263,2.951,2.263C105.463,112.429,107.269,111.197,107.44,109.535"/>
			</g>
		</g>
	</g>
	<g>
		<g>
			<g>
				<defs>
					<rect id="SVGID_97_" x="-62.981" y="-104.61" width="332.003" height="332.003"/>
				</defs>
				<clipPath id="SVGID_98_">
					<use xlink:href="#SVGID_97_"  overflow="visible"/>
				</clipPath>
				<path clip-path="url(#SVGID_98_)" fill="#FFFFFF" d="M129.153,105.41v9.479h-3.295v-8.562c0-2.291-1.373-3.695-3.666-3.695
					c-2.721,0.026-4.354,2.062-4.354,4.755v7.502h-3.295V93.637h3.295v8.997c1.089-2.147,3.036-3.096,5.644-3.096
					C127.034,99.538,129.153,101.774,129.153,105.41"/>
			</g>
		</g>
	</g>
	<g>
		<g>
			<g>
				<defs>
					<rect id="SVGID_99_" x="-62.981" y="-104.61" width="332.003" height="332.003"/>
				</defs>
				<clipPath id="SVGID_100_">
					<use xlink:href="#SVGID_99_"  overflow="visible"/>
				</clipPath>
				<path clip-path="url(#SVGID_100_)" fill="#FFFFFF" d="M147.315,107.245c0,4.61-3.234,7.764-7.935,7.764
					c-4.726,0-7.961-3.152-7.961-7.764c0-4.586,3.235-7.708,7.961-7.708C144.081,99.538,147.315,102.66,147.315,107.245
					 M134.713,107.302c0,2.949,1.919,4.955,4.669,4.955c2.721,0,4.641-2.006,4.641-4.955c0-2.924-1.92-4.958-4.641-4.958
					C136.634,102.345,134.713,104.38,134.713,107.302"/>
			</g>
		</g>
	</g>
	<g>
		<g>
			<g>
				<defs>
					<rect id="SVGID_101_" x="-62.981" y="-104.61" width="332.003" height="332.003"/>
				</defs>
				<clipPath id="SVGID_102_">
					<use xlink:href="#SVGID_101_"  overflow="visible"/>
				</clipPath>
				<path clip-path="url(#SVGID_102_)" fill="#FFFFFF" d="M158.662,113.917c-1.202,0.718-2.463,1.12-3.752,1.12
					c-2.292,0-4.271-1.318-4.271-4.44v-7.907h-2.146v-2.467h2.146v-4.179h3.268v4.179h4.496v2.467h-4.496v7.307
					c0,1.574,0.602,2.063,1.633,2.063c0.688,0,1.406-0.229,2.291-0.661L158.662,113.917z"/>
			</g>
		</g>
	</g>
	<g>
		<g>
			<g>
				<defs>
					<rect id="SVGID_103_" x="-62.981" y="-104.61" width="332.003" height="332.003"/>
				</defs>
				<clipPath id="SVGID_104_">
					<use xlink:href="#SVGID_103_"  overflow="visible"/>
				</clipPath>
				<path clip-path="url(#SVGID_104_)" fill="#FFFFFF" d="M165.28,102.145c-1.29,0-2.236,0.432-2.236,1.519
					c0,2.809,8.105,1.289,8.079,6.817c0,3.12-2.778,4.527-5.843,4.527c-2.236,0-4.612-0.747-6.131-2.121l1.175-2.349
					c1.317,1.176,3.438,1.891,5.1,1.891c1.402,0,2.492-0.486,2.492-1.634c0-3.122-8.022-1.375-7.993-6.877
					c0-3.093,2.693-4.409,5.613-4.409c1.919,0,3.954,0.573,5.326,1.546l-1.203,2.434C168.315,102.66,166.627,102.145,165.28,102.145
					"/>
			</g>
		</g>
	</g>
	<g>
		<g>
			<g>
				<defs>
					<rect id="SVGID_105_" x="-62.981" y="-104.61" width="332.003" height="332.003"/>
				</defs>
				<clipPath id="SVGID_106_">
					<use xlink:href="#SVGID_105_"  overflow="visible"/>
				</clipPath>
				<path clip-path="url(#SVGID_106_)" fill="#FFFFFF" d="M182.87,114.891v-1.858c-1.09,1.345-2.837,2.006-5.042,2.006
					c-3.295,0-5.356-2.035-5.356-4.729c0-2.778,2.092-4.556,5.758-4.584h4.61v-0.458c0-1.918-1.231-3.065-3.639-3.065
					c-1.46,0-2.978,0.516-4.496,1.545l-1.347-2.29c2.119-1.261,3.668-1.919,6.561-1.919c3.924,0,6.129,2.006,6.156,5.356
					l0.029,9.995L182.87,114.891L182.87,114.891z M182.84,109.535v-1.403h-4.126c-2.146,0-3.152,0.572-3.152,2.034
					c0,1.374,1.119,2.263,2.951,2.263C180.864,112.429,182.669,111.197,182.84,109.535"/>
			</g>
		</g>
	</g>
	<g>
		<g>
			<g>
				<defs>
					<rect id="SVGID_107_" x="-62.981" y="-104.61" width="332.003" height="332.003"/>
				</defs>
				<clipPath id="SVGID_108_">
					<use xlink:href="#SVGID_107_"  overflow="visible"/>
				</clipPath>
				<polygon clip-path="url(#SVGID_108_)" fill="#FFFFFF" points="190.376,99.654 194.615,111.656 198.798,99.654 202.091,99.654 
					196.249,114.892 192.839,114.892 186.938,99.654 				"/>
			</g>
		</g>
	</g>
	<g>
		<g>
			<g>
				<defs>
					<rect id="SVGID_109_" x="-62.981" y="-104.61" width="332.003" height="332.003"/>
				</defs>
				<clipPath id="SVGID_110_">
					<use xlink:href="#SVGID_109_"  overflow="visible"/>
				</clipPath>
				<path clip-path="url(#SVGID_110_)" fill="#FFFFFF" d="M16.393,103.165H8.302l-1.536,3.621H3.947l7.081-16.045h2.775
					l7.013,16.045h-2.888L16.393,103.165z M15.362,100.757l-3.026-7.128l-3.026,7.128H15.362z"/>
			</g>
		</g>
	</g>
	<g>
		<g>
			<g>
				<defs>
					<rect id="SVGID_111_" x="-62.981" y="-104.61" width="332.003" height="332.003"/>
				</defs>
				<clipPath id="SVGID_112_">
					<use xlink:href="#SVGID_111_"  overflow="visible"/>
				</clipPath>
				<path clip-path="url(#SVGID_112_)" fill="#FFFFFF" d="M42.59,99.198v7.588h-2.635v-6.854c0-1.855-1.101-2.98-2.89-2.98
					c-2.084,0.069-3.345,1.677-3.345,3.805v6.029h-2.636v-6.854c0-1.855-1.078-2.98-2.865-2.98
					c-2.109,0.069-3.393,1.677-3.393,3.805v6.029h-2.614V94.592h2.614v2.36c0.848-1.72,2.407-2.452,4.423-2.452
					c2.177,0,3.667,1.08,4.24,2.935c0.779-2.04,2.407-2.935,4.63-2.935C40.916,94.5,42.59,96.289,42.59,99.198"/>
			</g>
		</g>
	</g>
	<g>
		<g>
			<g>
				<defs>
					<rect id="SVGID_113_" x="-62.981" y="-104.61" width="332.003" height="332.003"/>
				</defs>
				<clipPath id="SVGID_114_">
					<use xlink:href="#SVGID_113_"  overflow="visible"/>
				</clipPath>
				<path clip-path="url(#SVGID_114_)" fill="#FFFFFF" d="M52.397,94.501v2.521c-2.452-0.137-4.012,1.307-4.218,3.391v6.375h-2.636
					V94.593h2.636v2.429C49.005,95.37,50.472,94.501,52.397,94.501"/>
			</g>
		</g>
	</g>
	<g>
		<g>
			<g>
				<defs>
					<rect id="SVGID_115_" x="-62.981" y="-104.61" width="332.003" height="332.003"/>
				</defs>
				<clipPath id="SVGID_116_">
					<use xlink:href="#SVGID_115_"  overflow="visible"/>
				</clipPath>
				<path clip-path="url(#SVGID_116_)" fill="#FFFFFF" d="M56.842,91.11c0,0.895-0.664,1.558-1.535,1.558s-1.535-0.664-1.535-1.558
					c0-0.918,0.665-1.584,1.535-1.584C56.178,89.527,56.842,90.192,56.842,91.11 M56.613,106.787H54V94.591h2.612L56.613,106.787
					L56.613,106.787z"/>
			</g>
		</g>
	</g>
	<g>
		<g>
			<g>
				<defs>
					<rect id="SVGID_117_" x="-62.981" y="-104.61" width="332.003" height="332.003"/>
				</defs>
				<clipPath id="SVGID_118_">
					<use xlink:href="#SVGID_117_"  overflow="visible"/>
				</clipPath>
				<path clip-path="url(#SVGID_118_)" fill="#FFFFFF" d="M66.836,106.007c-0.963,0.573-1.971,0.895-3.003,0.895
					c-1.834,0-3.416-1.054-3.416-3.553v-6.326h-1.719v-1.972h1.719v-3.343h2.614v3.343h3.597v1.972h-3.597v5.847
					c0,1.259,0.48,1.646,1.305,1.646c0.549,0,1.124-0.182,1.833-0.527L66.836,106.007z"/>
			</g>
		</g>
	</g>
	<g>
		<g>
			<g>
				<defs>
					<rect id="SVGID_119_" x="-62.981" y="-104.61" width="332.003" height="332.003"/>
				</defs>
				<clipPath id="SVGID_120_">
					<use xlink:href="#SVGID_119_"  overflow="visible"/>
				</clipPath>
				<path clip-path="url(#SVGID_120_)" fill="#FF8000" d="M164.031,24.746c-0.853-0.415-1.489-0.087-2.073,0.175
					c-5.547,2.496-11.098,2.394-16.898,0.712c-4.646-1.35-9.39-2.53-14.254-2.943c-8.709-0.736-16.494,2.276-24.043,6.092
					c-3.297,1.666-6.534,3.451-10.165,4.266c-3.223,0.726-4.407-0.499-3.806-3.738c0.506-2.729-0.106-3.828-2.733-4.741
					c-0.707-0.248-1.453-0.427-2.195-0.518c-9.345-1.137-18.479,0.188-27.516,2.42l-0.731,0.338c0,0,10.207-0.668,14.654,8.301
					c5.611-0.843,11.249-0.613,16.898,0.171c2.299,0.32,3.21,1.54,2.357,3.884c-0.339,0.934-0.519,1.953-0.596,2.946
					c-0.235,3.042,1.12,4.202,4.099,3.526c0.974-0.22,1.961-0.504,2.854-0.941c4.066-1.979,8.156-3.904,11.919-6.462
					c3.998-2.719,8.332-4.505,13.242-5.023c6.529-0.69,13.063-0.174,19.583-0.459c5.644-0.247,11.235-0.857,16.022-4.299
					C162.011,27.475,163.54,26.569,164.031,24.746"/>
			</g>
		</g>
	</g>
	<g>
		<g>
			<g>
				<defs>
					<rect id="SVGID_121_" x="-62.981" y="-104.61" width="332.003" height="332.003"/>
				</defs>
				<clipPath id="SVGID_122_">
					<use xlink:href="#SVGID_121_"  overflow="visible"/>
				</clipPath>
				<path clip-path="url(#SVGID_122_)" fill="#138831" d="M164.031,45.393c-0.853-0.415-1.489-0.088-2.073,0.176
					c-5.547,2.495-11.098,2.395-16.898,0.71c-4.646-1.347-9.39-2.527-14.254-2.938c-8.709-0.739-16.494,2.274-24.043,6.09
					c-3.297,1.665-6.534,3.452-10.165,4.266c-3.223,0.726-4.407-0.5-3.806-3.738c0.506-2.73-0.106-3.828-2.733-4.744
					c-0.707-0.246-1.453-0.424-2.195-0.515c-3.898-0.476-7.757-0.517-11.589-0.247c-0.139,1.444-1.183,8.903-8.08,12.629
					c0.842-0.227,1.684-0.446,2.531-0.646c6.782-1.598,13.605-1.459,20.443-0.506c2.299,0.321,3.21,1.54,2.357,3.884
					c-0.339,0.934-0.519,1.953-0.596,2.946c-0.235,3.041,1.12,4.201,4.099,3.526c0.974-0.22,1.961-0.508,2.854-0.94
					c4.066-1.979,8.156-3.906,11.919-6.464c3.998-2.718,8.332-4.504,13.242-5.023c6.529-0.689,13.063-0.174,19.583-0.458
					c5.644-0.25,11.235-0.856,16.022-4.3C162.011,48.12,163.54,47.216,164.031,45.393"/>
			</g>
		</g>
	</g>
	<g>
		<g>
			<g>
				<defs>
					<rect id="SVGID_123_" x="-62.981" y="-104.61" width="332.003" height="332.003"/>
				</defs>
				<clipPath id="SVGID_124_">
					<use xlink:href="#SVGID_123_"  overflow="visible"/>
				</clipPath>
				<polygon clip-path="url(#SVGID_124_)" fill="#FFFFFF" points="14.29,7.748 14.29,12.172 40.546,12.172 18.412,52.773 
					22.029,55.385 48.46,7.748 				"/>
			</g>
		</g>
	</g>
	<g>
		<g>
			<g>
				<defs>
					<rect id="SVGID_125_" x="-62.981" y="-104.61" width="332.003" height="332.003"/>
				</defs>
				<clipPath id="SVGID_126_">
					<use xlink:href="#SVGID_125_"  overflow="visible"/>
				</clipPath>
				<polygon clip-path="url(#SVGID_126_)" fill="#FFFFFF" points="73.476,7.748 52.933,7.748 37.998,34.682 41.452,36.39 
					55.172,12.172 73.476,12.172 				"/>
			</g>
		</g>
	</g>
</g>
</svg>
