<?xml version="1.0" encoding="utf-8"?>
<!-- Generator: Adobe Illustrator 16.0.0, SVG Export Plug-In . SVG Version: 6.00 Build 0)  -->
<!DOCTYPE svg PUBLIC "-//W3C//DTD SVG 1.1//EN" "http://www.w3.org/Graphics/SVG/1.1/DTD/svg11.dtd">
<svg version="1.1" id="Layer_1" xmlns="http://www.w3.org/2000/svg" xmlns:xlink="http://www.w3.org/1999/xlink" x="0px" y="0px"
	 width="1200px" height="400px" viewBox="0 0 1200 400" enable-background="new 0 0 1200 400" xml:space="preserve">
<linearGradient id="SVGID_1_" gradientUnits="userSpaceOnUse" x1="599.9995" y1="13.0586" x2="599.9995" y2="384.0674">
	<stop  offset="0" style="stop-color:#F45E27"/>
	<stop  offset="1" style="stop-color:#FF8800"/>
</linearGradient>
<rect fill="url(#SVGID_1_)" stroke="#000000" stroke-miterlimit="10" width="1200" height="400"/>
<g>
	<g>
		<g opacity="0.42">
			<linearGradient id="SVGID_2_" gradientUnits="userSpaceOnUse" x1="212.7144" y1="65.3457" x2="128.5061" y2="-79.9696">
				<stop  offset="0" style="stop-color:#FFFFFF"/>
				<stop  offset="1" style="stop-color:#F8F9F9;stop-opacity:0"/>
			</linearGradient>
			<path fill="url(#SVGID_2_)" d="M-7.222-10.562v210.523c35.003-13.622,58.806-40.307,58.806-71.021
				c0-16.233-6.668-31.336-18.101-43.99c22.852-4.958,41.835-16.349,52.909-31.265c16.544,11.376,38.922,18.375,63.577,18.375
				c37.885,0,70.42-16.497,84.602-40.075c13.337,6.522,29.427,10.334,46.751,10.334c30.24,0,56.721-11.608,71.358-28.988
				c12.412,7.638,28.497,12.258,46.086,12.258c31.947,0,58.947-15.216,67.904-36.151H-7.222z"/>
		</g>
		<g opacity="0.42">
			<linearGradient id="SVGID_3_" gradientUnits="userSpaceOnUse" x1="140.9824" y1="25.9092" x2="54.4881" y2="-123.3512">
				<stop  offset="0" style="stop-color:#FFFFFF"/>
				<stop  offset="1" style="stop-color:#F8F9F9;stop-opacity:0"/>
			</linearGradient>
			<path fill="url(#SVGID_3_)" d="M-7.222-10.562v51.471c14.739-6,26.889-14.923,34.892-25.702
				c16.544,11.376,38.921,18.374,63.577,18.374c37.885,0,70.419-16.495,84.602-40.075C189.187,0.028,205.276,3.84,222.6,3.84
				c20.665,0,39.571-5.423,54.145-14.402H-7.222z"/>
		</g>
	</g>
	<g>
		<g opacity="0.42">
			
				<linearGradient id="SVGID_4_" gradientUnits="userSpaceOnUse" x1="857.3486" y1="65.3452" x2="773.1404" y2="-79.97" gradientTransform="matrix(-1 0 0 1 1845.5742 0)">
				<stop  offset="0" style="stop-color:#FFFFFF"/>
				<stop  offset="1" style="stop-color:#F8F9F9;stop-opacity:0"/>
			</linearGradient>
			<path fill="url(#SVGID_4_)" d="M1208.162-10.562v210.523c-35.004-13.622-58.806-40.307-58.806-71.021
				c0-16.233,6.668-31.336,18.1-43.99c-22.85-4.958-41.835-16.349-52.908-31.265c-16.544,11.376-38.921,18.375-63.577,18.375
				c-37.885,0-70.421-16.497-84.604-40.075c-13.337,6.522-29.425,10.334-46.75,10.334c-30.238,0-56.72-11.608-71.357-28.988
				c-12.413,7.638-28.497,12.258-46.086,12.258c-31.947,0-58.949-15.216-67.905-36.151H1208.162z"/>
		</g>
		<g opacity="0.42">
			
				<linearGradient id="SVGID_5_" gradientUnits="userSpaceOnUse" x1="785.6162" y1="25.9087" x2="699.1218" y2="-123.3517" gradientTransform="matrix(-1 0 0 1 1845.5742 0)">
				<stop  offset="0" style="stop-color:#FFFFFF"/>
				<stop  offset="1" style="stop-color:#F8F9F9;stop-opacity:0"/>
			</linearGradient>
			<path fill="url(#SVGID_5_)" d="M1208.162-10.562v51.471c-14.74-6-26.888-14.923-34.891-25.702
				c-16.546,11.376-38.924,18.374-63.579,18.374c-37.884,0-70.419-16.495-84.603-40.075C1011.753,0.028,995.665,3.84,978.339,3.84
				c-20.662,0-39.569-5.423-54.144-14.402H1208.162z"/>
		</g>
	</g>
</g>
<g>
	<g>
		<linearGradient id="SVGID_6_" gradientUnits="userSpaceOnUse" x1="374.6948" y1="205.3184" x2="374.6948" y2="675.1549">
			<stop  offset="0" style="stop-color:#3B1409"/>
			<stop  offset="1" style="stop-color:#290E06"/>
		</linearGradient>
		<path fill="url(#SVGID_6_)" d="M397.335,356.18h-4.954l-1.561-58.071h3.731c1.324,0,2.395-1.073,2.395-2.395v-0.741
			c0-1.324-1.071-2.396-2.395-2.396h-3.88l-1.562-58.071h0.002l-0.151-5.531h2.81c1.322,0,2.394-1.072,2.394-2.395v-0.74
			c0-1.323-1.072-2.396-2.394-2.396h-1.778v-18.992l-0.055-3.131h1.833c1.322,0,2.394-1.071,2.394-2.395v-0.739
			c0-1.324-1.072-2.396-2.394-2.396h-1.002c0-7.878-5.748-14.387-13.293-15.7v-11.378c0-1.146-0.7-2.127-1.698-2.548
			c-0.333-0.14-0.699-0.217-1.083-0.217c-1.536,0-2.782,1.238-2.782,2.765v11.378c-7.545,1.313-13.293,7.822-13.293,15.7h-1.001
			c-1.323,0-2.395,1.072-2.395,2.396v0.739c0,1.323,1.072,2.395,2.395,2.395h1.778v3.131v18.992h-1.778
			c-1.323,0-2.395,1.072-2.395,2.396v0.74c0,1.322,1.072,2.395,2.395,2.395h2.809l-0.15,5.531h0.001l-1.562,58.071h-3.88
			c-1.322,0-2.395,1.071-2.395,2.396v0.741c0,1.321,1.072,2.395,2.395,2.395h3.731l-1.561,58.071h-4.952
			c-1.322,0-2.395,1.071-2.395,2.396v0.741c0,1.321,1.072,2.395,2.395,2.395h4.804l-0.898,33.401h-3.905
			c-1.322,0-2.395,1.072-2.395,2.395v0.742c0,1.321,1.072,2.395,2.395,2.395h3.757h37.765h3.758c1.322,0,2.393-1.073,2.393-2.395
			v-0.742c0-1.322-1.071-2.395-2.393-2.395h-3.906l-0.899-33.401h4.805c1.322,0,2.393-1.073,2.393-2.395v-0.741
			C399.729,357.251,398.658,356.18,397.335,356.18z M367.742,220.679h-6.955v-11.061c0-1.527,1.246-2.765,2.782-2.765
			s2.781,1.237,2.781,2.765h1.392V220.679z M378.868,220.679h-8.344v-11.061h1.39c0-1.527,1.246-2.765,2.782-2.765
			c1.536,0,2.781,1.237,2.781,2.765h1.392V220.679z M388.603,220.679h-6.953v-11.061h1.39c0-1.527,1.246-2.765,2.782-2.765
			c1.535,0,2.781,1.237,2.781,2.765V220.679z"/>
		<linearGradient id="SVGID_7_" gradientUnits="userSpaceOnUse" x1="825.3047" y1="205.3184" x2="825.3047" y2="675.1549">
			<stop  offset="0" style="stop-color:#3B1409"/>
			<stop  offset="1" style="stop-color:#290E06"/>
		</linearGradient>
		<path fill="url(#SVGID_7_)" d="M849.638,361.008c0.217-0.216,0.392-0.474,0.514-0.76c0.121-0.286,0.188-0.603,0.188-0.932v-0.741
			c0-1.324-1.071-2.396-2.395-2.396h-4.952l-1.562-58.071h3.732c0.661,0,1.26-0.269,1.694-0.702c0.432-0.434,0.7-1.031,0.7-1.692
			l0,0v-0.741c0-1.324-1.071-2.396-2.395-2.396h-3.88l-1.563-58.071h0.003l-0.151-5.531h2.809l0,0c0.663,0,1.261-0.267,1.694-0.7
			c0.434-0.433,0.7-1.032,0.7-1.694v-0.74c0-0.662-0.267-1.261-0.7-1.693c-0.434-0.434-1.031-0.702-1.694-0.702l0,0h-1.776v-18.992
			v-3.131h1.776c1.324,0,2.395-1.071,2.395-2.395l0,0v-0.739c0-0.332-0.066-0.647-0.187-0.934c-0.364-0.859-1.216-1.463-2.208-1.463
			h-1.002c0-1.792-0.332-3.5-0.88-5.106c-0.572-1.673-1.421-3.206-2.484-4.576c-0.159-0.205-0.285-0.434-0.452-0.629
			c-1.785-2.083-4.101-3.703-6.738-4.66c-0.878-0.319-1.795-0.565-2.737-0.728v-11.378c0-0.765-0.311-1.456-0.814-1.956
			c-0.504-0.5-1.199-0.809-1.968-0.809l0,0l0,0c-0.769,0-1.464,0.31-1.966,0.809c-0.504,0.5-0.815,1.191-0.815,1.956v11.378
			c-0.943,0.163-1.858,0.409-2.737,0.728c-6.155,2.234-10.556,8.078-10.556,14.972h-1.002c-0.992,0-1.844,0.604-2.207,1.463
			c-0.12,0.286-0.188,0.602-0.188,0.934v0.739l0,0c0,1.323,1.073,2.395,2.395,2.395h1.777v3.131v18.992h-1.777l0,0
			c-0.661,0-1.259,0.269-1.693,0.702c-0.433,0.433-0.701,1.031-0.701,1.693v0.74c0,0.662,0.269,1.262,0.701,1.694
			c0.435,0.434,1.032,0.7,1.693,0.7l0,0h2.81l-0.151,5.531h0.003l-1.562,58.071h-3.881c-1.322,0-2.395,1.071-2.395,2.396v0.741l0,0
			c0,0.661,0.268,1.259,0.701,1.692s1.031,0.702,1.693,0.702h3.731l-1.56,58.071h-4.954h-0.001c-1.321,0-2.394,1.071-2.394,2.396
			v0.741c0,0.329,0.067,0.646,0.188,0.932c0.123,0.286,0.298,0.544,0.514,0.76c0.106,0.106,0.246,0.165,0.368,0.248
			c0.131,0.091,0.245,0.203,0.394,0.266c0.286,0.122,0.602,0.189,0.932,0.189h4.805l-0.898,33.401h-3.906h-0.001
			c-0.99,0-1.843,0.603-2.206,1.462c-0.12,0.287-0.188,0.601-0.188,0.933v0.742l0,0c0,0.463,0.168,0.871,0.396,1.237
			c0.422,0.68,1.14,1.157,1.997,1.157h0.001h3.758h37.765h3.757c0.858,0,1.578-0.478,2-1.157c0.229-0.366,0.395-0.774,0.395-1.237
			l0,0v-0.742c0-0.332-0.066-0.646-0.188-0.933c-0.363-0.859-1.215-1.462-2.207-1.462h-3.906l-0.898-33.401h4.805
			C848.605,361.711,849.204,361.442,849.638,361.008z M818.353,220.679h-6.955v-11.061c0-1.146,0.7-2.128,1.698-2.548
			c0.333-0.141,0.699-0.217,1.084-0.217c1.535,0,2.781,1.237,2.781,2.765h1.392V220.679z M829.477,220.679h-8.344v-11.061h1.391
			c0-0.764,0.312-1.455,0.815-1.956c0.502-0.499,1.197-0.809,1.966-0.809s1.464,0.31,1.968,0.809
			c0.504,0.501,0.814,1.192,0.814,1.956h1.39V220.679z M839.213,220.679h-6.953v-11.061h1.39l0,0c0-1.146,0.7-2.128,1.7-2.548
			c0.331-0.141,0.697-0.217,1.082-0.217c1.152,0,2.141,0.696,2.562,1.688c0.142,0.331,0.22,0.695,0.22,1.076V220.679z"/>
		<linearGradient id="SVGID_8_" gradientUnits="userSpaceOnUse" x1="599.8179" y1="205.3174" x2="599.8179" y2="675.1556">
			<stop  offset="0" style="stop-color:#3B1409"/>
			<stop  offset="1" style="stop-color:#290E06"/>
		</linearGradient>
		<path fill="url(#SVGID_8_)" d="M786.036,253.073c-1.727,0-3.128,1.402-3.128,3.13v25.034h-6.26V265.59
			c0-1.727-1.399-3.128-3.128-3.128c-1.729,0-3.13,1.401-3.13,3.128v15.647h-42.453v-9.357h-8.581v-23.176h1.564
			c1.728,0,3.128-1.401,3.128-3.131c0-1.727-1.4-3.128-3.128-3.128c0-10.167-7.468-18.566-17.212-20.075v-12.783
			c0-1.728-1.399-3.128-3.129-3.128l0,0c-1.729,0-3.13,1.4-3.13,3.128v12.783c-9.743,1.509-17.211,9.908-17.211,20.075
			c-1.728,0-3.129,1.401-3.129,3.128c0,1.729,1.401,3.131,3.129,3.131h1.565v23.176h-4.747c-0.021,0-0.015-0.025-0.029-0.03h-5.057
			v-30.799h-9.388v-9.388c2.884-3.994,4.605-6.929,6.396-11.428c1.43-3.599,2.336-7.595,2.737-11.818
			c0.004-0.042,0.013-0.082,0.018-0.125c0.005-0.065,0.003-0.135,0.009-0.201c0.131-1.502,0.194-3.029,0.191-4.583
			c0-0.002,0-0.005,0-0.01l0,0l0,0l0,0c-0.019-7.231-1.495-14.964-4.68-22.593c-3.513-8.411-9.06-16.679-16.878-23.961
			c-1.813-1.688-3.61-3.323-5.394-4.929c-0.57-0.513-1.13-1.008-1.695-1.513c-1.243-1.108-2.475-2.202-3.692-3.272
			c-0.613-0.539-1.218-1.069-1.823-1.597c-1.292-1.127-2.563-2.233-3.819-3.322c-0.543-0.47-1.074-0.933-1.609-1.396h0.5
			c1.729,0,3.131-1.401,3.131-3.129c0-1.727-1.401-3.129-3.131-3.129h-7.688c-0.293-0.258-0.589-0.518-0.884-0.777
			c-0.748-0.656-1.497-1.315-2.246-1.975c-0.388-0.34-0.771-0.682-1.156-1.022c-0.655-0.58-1.309-1.161-1.958-1.743
			c-0.407-0.365-0.812-0.731-1.216-1.097c-0.604-0.545-1.2-1.09-1.793-1.636c-0.414-0.38-0.822-0.761-1.23-1.142
			c-0.574-0.539-1.139-1.074-1.696-1.609c-0.389-0.373-0.777-0.746-1.156-1.117c-0.558-0.546-1.094-1.09-1.628-1.631
			c-0.347-0.354-0.701-0.708-1.037-1.059c-0.559-0.583-1.085-1.159-1.607-1.736c-0.273-0.301-0.562-0.605-0.824-0.903
			c-0.743-0.848-1.446-1.686-2.096-2.511c-0.016-0.021-0.035-0.042-0.052-0.061c2.853-1.612,4.801-4.635,4.801-8.144
			c0-2.997-1.422-5.638-3.613-7.347c-0.792-0.619-1.68-1.123-2.646-1.466v-7.701c0.671-0.39,1.226-0.931,1.709-1.529
			c0.863-1.064,1.42-2.381,1.42-3.862c0-1.733-0.712-3.288-1.854-4.416c-0.38-0.375-0.809-0.704-1.274-0.974V72.07
			c0-0.431-0.088-0.843-0.245-1.218c-0.056-0.132-0.164-0.23-0.239-0.354c-0.132-0.222-0.248-0.457-0.43-0.639
			c-0.123-0.121-0.286-0.188-0.426-0.289c-0.187-0.134-0.354-0.291-0.567-0.381c-0.154-0.065-0.336-0.063-0.503-0.103
			c-0.233-0.057-0.457-0.144-0.707-0.146v0.003c-0.004,0-0.007-0.003-0.012-0.003c-1.728,0-3.13,1.402-3.13,3.13v7.127
			c-1.861,1.083-3.128,3.08-3.128,5.39c0,2.311,1.267,4.308,3.128,5.391v7.701c-3.637,1.294-6.258,4.732-6.258,8.813
			c0,3.515,1.955,6.542,4.815,8.152c-4.954,6.329-12.92,13.3-20.574,20.011h-7.71c-1.729,0-3.13,1.402-3.13,3.129
			c0,1.729,1.401,3.129,3.13,3.129h0.523c-5.7,4.931-11.791,10.216-18.033,16.032c-16.476,15.342-22.829,35.049-21.36,51.254
			c0.008,0.087,0.019,0.173,0.029,0.26c0.463,4.837,1.594,9.369,3.401,13.356c1.737,3.835,3.191,6.842,5.723,9.848v9.388h-9.388
			v28.009c0.033-0.058,0.125-0.063,0.125,0.019v3.265h-5.542c-0.015,0.006-0.009,0.031-0.028,0.031h-6.626v-23.67h1.565
			c1.727,0,3.128-1.401,3.128-3.131c0-1.727-1.401-3.128-3.128-3.128c0-10.167-7.468-18.566-17.211-20.075v-12.783
			c0-1.728-1.401-3.128-3.13-3.128l0,0c-1.729,0-3.13,1.4-3.13,3.128v12.783c-9.744,1.509-17.21,9.908-17.21,20.075
			c-1.729,0-3.128,1.401-3.128,3.128c0,1.729,1.4,3.131,3.128,3.131h1.565v23.67h-6.705v9.356h-42.453v-15.647
			c0-1.727-1.401-3.128-3.13-3.128c-1.727,0-3.128,1.401-3.128,3.128v15.647h-6.258v-25.032c0-1.729-1.401-3.131-3.13-3.131
			s-3.13,1.401-3.13,3.131v143.945h17.419v-25.275c0-15.434,15.646-16.493,15.646-18.535c0,2.042,15.647,3.102,15.647,18.535v25.275
			h21.904v-25.275c0-15.434,17.211-16.493,17.211-18.535c0,2.042,17.21,3.102,17.21,18.535v25.275h12.643h4.494h26.675v-71.976
			c0-36.479,40.68-38.983,40.68-43.808c0,4.824,40.679,7.328,40.679,43.808v71.976h31.483v-0.494h11.968v-25.274
			c0-15.435,17.21-16.494,17.21-18.536c0,2.042,17.211,3.102,17.211,18.536v25.274h21.905v-25.274
			c0-15.435,15.646-16.494,15.646-18.536c0,2.042,15.646,3.102,15.646,18.536v25.274h17.419V256.203
			C789.166,254.476,787.765,253.073,786.036,253.073z M459.183,341.187h-31.293v-25.273c0-15.436,15.646-16.495,15.646-18.536
			c0,2.041,15.647,3.101,15.647,18.536V341.187z M509.697,254.961c1.727,0,3.128,1.402,3.128,3.131v14.282h-6.258v-14.282
			C506.567,256.363,507.968,254.961,509.697,254.961z M497.179,254.961c3.458,0,6.258,2.804,6.258,6.26v11.153h-12.516v-11.153
			C490.921,257.765,493.722,254.961,497.179,254.961z M481.533,258.092c0-1.729,1.401-3.131,3.128-3.131
			c1.729,0,3.13,1.402,3.13,3.131v14.282h-6.258V258.092z M515.508,341.187h-34.421v-25.273c0-15.436,17.211-16.495,17.211-18.536
			c0,2.041,17.21,3.101,17.21,18.536V341.187z M713.097,254.961c1.729,0,3.13,1.402,3.13,3.131v13.788h-6.258v-13.788
			C709.969,256.363,711.37,254.961,713.097,254.961z M700.58,254.961c3.456,0,6.258,2.804,6.258,6.26v10.659h-12.516v-10.659
			C694.322,257.765,697.123,254.961,700.58,254.961z M684.935,258.092c0-1.729,1.4-3.131,3.128-3.131c1.729,0,3.13,1.402,3.13,3.131
			v13.788h-6.258V258.092z M718.55,340.692h-34.421v-25.273c0-15.435,17.21-16.495,17.21-18.536c0,2.041,17.211,3.102,17.211,18.536
			V340.692z M771.747,340.692h-31.292v-25.273c0-15.435,15.646-16.495,15.646-18.536c0,2.041,15.646,3.102,15.646,18.536V340.692z"
			/>
	</g>
</g>
<g>
	<linearGradient id="SVGID_9_" gradientUnits="userSpaceOnUse" x1="993.9902" y1="223.6025" x2="993.9902" y2="664.68">
		<stop  offset="0" style="stop-color:#3B1409"/>
		<stop  offset="1" style="stop-color:#290E06"/>
	</linearGradient>
	<path fill="url(#SVGID_9_)" d="M1026.088,201.002l6.28-5.431c-16.84-0.122-28.126,9.782-34.693,18.255
		c12.152-22.549,32.623-30.372,32.623-30.372c-17.034-13.05-32.568,6.159-32.568,6.159l1.16-5.726
		c-12.003,7.662-11.478,22.351-9.419,32.241c-10.279-26.185-31.998-21.711-29.28-21.013c3.024,0.777,4.969,3.867,4.969,3.867
		c-3.522-1.216-7.421-1.857-11.511-1.348c-15.459,1.926-17.152,15.358-17.152,15.358c26.293-7.495,43.306,2.129,51.068,8.467
		c-0.051,0.069-0.102,0.137-0.151,0.206c-3.919-2.463-10.461-5.026-20.825-5.117c-17.313-0.153-31.284,16.465-26.26,12.915
		c5.025-3.547,9.842-2.752,9.842-2.752s-11.01,0.316-20.086,15.493c-4.055,6.782-3.579,14.224-1.816,20.385
		c3.067-5.363,9.925-12.88,23.273-23.416c4.019-3.173,7.938-5.546,11.597-7.428c-13.795,11.44-15.763,29.156-13.347,25.677
		c2.136-3.077,4.672-5.572,6.506-7.183c-2.106,2.378-4.764,7.29-4.615,16.899c0.245,15.794,17.164,20.35,17.164,20.35
		s-12.259-42.916,18.724-61.871c0.008,0.007,0.015,0.015,0.022,0.021c0.876-0.715,1.833-1.29,2.83-1.737
		c1.7,2.259,3.344,4.554,4.905,6.897c3.618,5.432,6.869,11.078,9.79,16.87c5.84,11.589,10.344,23.75,13.712,36.159
		c6.743,24.847,14.778,84.81,8.109,116.816l27.007-1c0-35.675-11.307-96.415-22.465-120.27
		c-5.789-12.375-11.949-24.575-19.705-35.694c-3.88-5.556-8.057-10.884-12.55-15.905c-1.487-1.661-3.021-3.274-4.574-4.866
		c32.618,1.928,52.232,21.345,55.946,28.191c0.387-0.095,0.033-0.008,0.418-0.103c1.061-17.674-15.232-24.804-15.232-24.804
		l5.745-0.234c-7.577-8.23-16.628-10.748-24.976-10.686c1.458-0.289,2.972-0.556,4.552-0.787c18.96-2.786,39.911,8.245,39.911,8.245
		C1057.236,192.45,1026.088,201.002,1026.088,201.002z"/>
	<linearGradient id="SVGID_10_" gradientUnits="userSpaceOnUse" x1="206.0103" y1="223.6025" x2="206.0102" y2="664.68">
		<stop  offset="0" style="stop-color:#3B1409"/>
		<stop  offset="1" style="stop-color:#290E06"/>
	</linearGradient>
	<path fill="url(#SVGID_10_)" d="M173.912,201.002l-6.279-5.431c16.839-0.122,28.126,9.782,34.693,18.255
		c-12.152-22.549-32.622-30.372-32.622-30.372c17.033-13.05,32.567,6.159,32.567,6.159l-1.161-5.726
		c12.003,7.662,11.479,22.351,9.419,32.241c10.28-26.185,31.998-21.711,29.28-21.013c-3.024,0.777-4.968,3.867-4.968,3.867
		c3.522-1.216,7.42-1.857,11.51-1.348c15.459,1.926,17.153,15.358,17.153,15.358c-26.294-7.495-43.307,2.129-51.067,8.467
		c0.05,0.069,0.101,0.137,0.15,0.206c3.919-2.463,10.461-5.026,20.824-5.117c17.313-0.153,31.285,16.465,26.26,12.915
		c-5.025-3.547-9.841-2.752-9.841-2.752s11.01,0.316,20.086,15.493c4.056,6.782,3.579,14.224,1.815,20.385
		c-3.066-5.363-9.925-12.88-23.272-23.416c-4.02-3.173-7.938-5.546-11.597-7.428c13.794,11.44,15.762,29.156,13.346,25.677
		c-2.135-3.077-4.672-5.572-6.505-7.183c2.105,2.378,4.764,7.29,4.614,16.899c-0.244,15.794-17.164,20.35-17.164,20.35
		s12.259-42.916-18.723-61.871c-0.007,0.007-0.015,0.015-0.022,0.021c-0.877-0.715-1.833-1.29-2.83-1.737
		c-1.7,2.259-3.344,4.554-4.906,6.897c-3.618,5.432-6.869,11.078-9.79,16.87c-5.84,11.589-10.344,23.75-13.712,36.159
		c-6.742,24.847-14.777,84.81-8.109,116.816l-27.006-1c0-35.675,11.307-96.415,22.465-120.27
		c5.788-12.375,11.949-24.575,19.706-35.694c3.878-5.556,8.057-10.884,12.549-15.905c1.486-1.661,3.02-3.274,4.573-4.866
		c-32.617,1.928-52.231,21.345-55.946,28.191c-0.387-0.095-0.031-0.008-0.418-0.103c-1.061-17.674,15.233-24.804,15.233-24.804
		l-5.745-0.234c7.577-8.23,16.628-10.748,24.976-10.686c-1.459-0.289-2.972-0.556-4.552-0.787
		c-18.961-2.786-39.912,8.245-39.912,8.245C142.764,192.45,173.912,201.002,173.912,201.002z"/>
</g>
<linearGradient id="SVGID_11_" gradientUnits="userSpaceOnUse" x1="359.9331" y1="116.7627" x2="322.122" y2="51.5133">
	<stop  offset="0" style="stop-color:#FFFFFF"/>
	<stop  offset="1" style="stop-color:#F8F9F9;stop-opacity:0"/>
</linearGradient>
<path opacity="0.42" fill="url(#SVGID_11_)" d="M439.552,104.133c0-6.304-12.879-11.453-29.083-11.776
	c0-0.005,0.001-0.011,0.001-0.017c0-8.843-14.472-16.013-32.325-16.013c-8.566,0-16.349,1.654-22.133,4.348
	c-6.258-3.936-15.666-6.44-26.189-6.44c-9.389,0-17.891,1.994-24.06,5.218c-4.921-3.215-11.822-5.218-19.469-5.218
	c-14.944,0-27.059,7.638-27.059,17.059c0,9.421,12.115,17.059,27.059,17.059c3.503,0,6.848-0.424,9.92-1.188
	c-0.327,0.951-0.508,1.927-0.508,2.925c0,9.437,15.275,17.087,34.117,17.087c8.821,0,16.859-1.677,22.916-4.428
	c5.171,5.431,16.321,9.191,29.247,9.191c17.853,0,32.325-7.169,32.325-16.012c0-0.063-0.008-0.126-0.01-0.189
	C428.655,114.749,439.552,109.931,439.552,104.133z"/>
<linearGradient id="SVGID_12_" gradientUnits="userSpaceOnUse" x1="485.7158" y1="101.0366" x2="447.9044" y2="35.7867">
	<stop  offset="0" style="stop-color:#FFFFFF"/>
	<stop  offset="1" style="stop-color:#F8F9F9;stop-opacity:0"/>
</linearGradient>
<path opacity="0.42" fill="url(#SVGID_12_)" d="M565.334,88.407c0-6.304-12.879-11.453-29.083-11.776
	c0-0.005,0.001-0.011,0.001-0.017c0-8.843-14.472-16.013-32.325-16.013c-8.566,0-16.349,1.654-22.133,4.348
	c-6.258-3.936-15.666-6.44-26.189-6.44c-9.389,0-17.891,1.994-24.06,5.218c-4.921-3.215-11.822-5.218-19.469-5.218
	c-14.944,0-27.059,7.638-27.059,17.059c0,9.421,12.115,17.059,27.059,17.059c3.503,0,6.848-0.424,9.92-1.188
	c-0.327,0.951-0.508,1.927-0.508,2.925c0,9.437,15.275,17.087,34.117,17.087c8.821,0,16.859-1.677,22.916-4.428
	c5.171,5.431,16.321,9.191,29.247,9.191c17.853,0,32.325-7.169,32.325-16.012c0-0.063-0.008-0.126-0.01-0.189
	C554.438,99.022,565.334,94.205,565.334,88.407z"/>
<linearGradient id="SVGID_13_" gradientUnits="userSpaceOnUse" x1="756.3037" y1="116.7632" x2="718.4926" y2="51.5138">
	<stop  offset="0" style="stop-color:#FFFFFF"/>
	<stop  offset="1" style="stop-color:#F8F9F9;stop-opacity:0"/>
</linearGradient>
<path opacity="0.42" fill="url(#SVGID_13_)" d="M835.923,104.133c0-6.304-12.88-11.453-29.083-11.776
	c0-0.005,0.001-0.011,0.001-0.017c0-8.843-14.472-16.013-32.325-16.013c-8.566,0-16.348,1.654-22.133,4.348
	c-6.258-3.936-15.666-6.44-26.189-6.44c-9.389,0-17.891,1.994-24.06,5.218c-4.921-3.215-11.822-5.218-19.47-5.218
	c-14.943,0-27.059,7.638-27.059,17.059c0,9.421,12.115,17.059,27.059,17.059c3.504,0,6.848-0.424,9.92-1.188
	c-0.326,0.951-0.508,1.927-0.508,2.925c0,9.437,15.275,17.087,34.117,17.087c8.821,0,16.859-1.677,22.916-4.428
	c5.172,5.431,16.32,9.191,29.247,9.191c17.853,0,32.325-7.169,32.325-16.012c0-0.063-0.009-0.126-0.01-0.189
	C825.025,114.749,835.923,109.931,835.923,104.133z"/>
<linearGradient id="SVGID_14_" gradientUnits="userSpaceOnUse" x1="846.4629" y1="101.0366" x2="808.6514" y2="35.7867">
	<stop  offset="0" style="stop-color:#FFFFFF"/>
	<stop  offset="1" style="stop-color:#F8F9F9;stop-opacity:0"/>
</linearGradient>
<path opacity="0.42" fill="url(#SVGID_14_)" d="M926.082,88.407c0-6.304-12.88-11.453-29.083-11.776
	c0-0.005,0.001-0.011,0.001-0.017c0-8.843-14.472-16.013-32.325-16.013c-8.566,0-16.348,1.654-22.133,4.348
	c-6.258-3.936-15.666-6.44-26.189-6.44c-9.389,0-17.891,1.994-24.06,5.218c-4.921-3.215-11.822-5.218-19.47-5.218
	c-14.943,0-27.059,7.638-27.059,17.059c0,9.421,12.115,17.059,27.059,17.059c3.504,0,6.848-0.424,9.92-1.188
	c-0.326,0.951-0.508,1.927-0.508,2.925c0,9.437,15.275,17.087,34.117,17.087c8.821,0,16.859-1.677,22.916-4.428
	c5.172,5.431,16.32,9.191,29.247,9.191c17.853,0,32.325-7.169,32.325-16.012c0-0.063-0.009-0.126-0.01-0.189
	C915.185,99.022,926.082,94.205,926.082,88.407z"/>
<linearGradient id="SVGID_15_" gradientUnits="userSpaceOnUse" x1="192.4146" y1="391.2324" x2="175.8158" y2="362.5885">
	<stop  offset="0" style="stop-color:#3B1409"/>
	<stop  offset="1" style="stop-color:#290E06"/>
</linearGradient>
<path fill="url(#SVGID_15_)" d="M167,389c0,0,14.5-12.5,11-29.5c0,0,2.5,6.5-1.5,29.5c0,0,11.25-22.75,36-20.75
	c0,0-18.25,7.75-18.25,20.75c0,0,12,4.5,21.5-5l-11.25,16l-0.25,0.644c-5.75,3.106-39,1.356-39,1.356L167,389z"/>
<linearGradient id="SVGID_16_" gradientUnits="userSpaceOnUse" x1="339.4722" y1="391.2324" x2="322.8734" y2="362.5885" gradientTransform="matrix(-1 0 0 1 675.1172 0)">
	<stop  offset="0" style="stop-color:#3B1409"/>
	<stop  offset="1" style="stop-color:#290E06"/>
</linearGradient>
<path fill="url(#SVGID_16_)" d="M361.059,389c0,0-14.5-12.5-11-29.5c0,0-2.5,6.5,1.5,29.5c0,0-11.25-22.75-36-20.75
	c0,0,18.25,7.75,18.25,20.75c0,0-12,4.5-21.5-5l11.25,16l0.25,0.644c5.75,3.106,39,1.356,39,1.356L361.059,389z"/>
<linearGradient id="SVGID_17_" gradientUnits="userSpaceOnUse" x1="-334.645" y1="391.2324" x2="-351.2438" y2="362.5885" gradientTransform="matrix(-1 0 0 1 675.1172 0)">
	<stop  offset="0" style="stop-color:#3B1409"/>
	<stop  offset="1" style="stop-color:#290E06"/>
</linearGradient>
<path fill="url(#SVGID_17_)" d="M1035.176,389c0,0-14.5-12.5-11-29.5c0,0-2.5,6.5,1.5,29.5c0,0-11.25-22.75-36-20.75
	c0,0,18.25,7.75,18.25,20.75c0,0-12,4.5-21.5-5l11.25,16l0.25,0.644c5.75,3.106,39,1.356,39,1.356L1035.176,389z"/>
<linearGradient id="SVGID_18_" gradientUnits="userSpaceOnUse" x1="-184.1426" y1="391.2324" x2="-200.7413" y2="362.5885" gradientTransform="matrix(1 0 0 1 1047.2305 0)">
	<stop  offset="0" style="stop-color:#3B1409"/>
	<stop  offset="1" style="stop-color:#290E06"/>
</linearGradient>
<path fill="url(#SVGID_18_)" d="M837.674,389c0,0,14.5-12.5,11-29.5c0,0,2.5,6.5-1.5,29.5c0,0,11.25-22.75,36-20.75
	c0,0-18.25,7.75-18.25,20.75c0,0,12,4.5,21.5-5l-11.25,16l-0.25,0.644c-5.75,3.106-39,1.356-39,1.356L837.674,389z"/>
</svg>
