<?xml version="1.0" encoding="utf-8"?>
<!-- Generator: Adobe Illustrator 16.0.0, SVG Export Plug-In . SVG Version: 6.00 Build 0)  -->
<!DOCTYPE svg PUBLIC "-//W3C//DTD SVG 1.1//EN" "http://www.w3.org/Graphics/SVG/1.1/DTD/svg11.dtd">
<svg version="1.1" id="Layer_1" xmlns="http://www.w3.org/2000/svg" xmlns:xlink="http://www.w3.org/1999/xlink" x="0px" y="0px"
	 width="38px" height="38px" viewBox="0 0 38 38" enable-background="new 0 0 38 38" xml:space="preserve">
<path fill="#FF8800" d="M10.843,25.346v0.002c1.631,1.066,3.539,1.63,5.514,1.63c1.585,0,3.067-0.314,4.403-0.934
	c1.227-0.567,2.31-1.379,3.22-2.412c1.681-1.907,2.645-4.43,2.645-6.922c0-0.155,0-0.314-0.008-0.465
	c0.709-0.511,1.314-1.141,1.804-1.87c-0.658,0.291-1.356,0.481-2.074,0.568c0.759-0.454,1.322-1.163,1.587-1.997
	c-0.708,0.418-1.479,0.713-2.29,0.876c-0.687-0.734-1.622-1.138-2.633-1.138c-1.99,0-3.607,1.617-3.607,3.606
	c0,0.295,0.033,0.574,0.098,0.823c-2.893-0.145-5.604-1.52-7.439-3.771c-0.317,0.549-0.486,1.176-0.486,1.811
	c0,1.213,0.602,2.335,1.609,3.002c-0.573-0.015-1.121-0.166-1.632-0.449v0.045c0,0.839,0.295,1.655,0.828,2.3
	c0.526,0.635,1.262,1.074,2.068,1.238c-0.309,0.086-0.629,0.127-0.951,0.127c-0.231,0-0.455-0.021-0.681-0.068
	c0.467,1.471,1.82,2.479,3.368,2.509c-1.291,1.009-2.841,1.541-4.482,1.541C11.393,25.399,11.111,25.382,10.843,25.346z M19,34
	c-8.271,0-15-6.729-15-15c0-8.271,6.729-15,15-15s15,6.729,15,15C34,27.271,27.271,34,19,34z"/>
</svg>
